<?xml version="1.0" standalone="no"?>
<!DOCTYPE svg PUBLIC "-//W3C//DTD SVG 20010904//EN"
 "http://www.w3.org/TR/2001/REC-SVG-20010904/DTD/svg10.dtd">
<svg version="1.0" xmlns="http://www.w3.org/2000/svg"
 width="500.000000pt" height="500.000000pt" viewBox="0 0 500.000000 500.000000"
 preserveAspectRatio="xMidYMid meet">
<metadata>
Created by potrace 1.11, written by Peter Selinger 2001-2013
</metadata>
<g transform="translate(0.000000,500.000000) scale(0.100000,-0.100000)"
fill="#000000" stroke="none">
<path d="M0 2730 l0 -2270 415 0 415 0 0 -230 0 -230 571 0 572 0 66 49 c142
105 328 207 519 286 692 283 1678 281 2375 -6 l67 -28 0 2350 0 2349 -2500 0
-2500 0 0 -2270z m4301 1461 c260 -67 431 -246 506 -529 25 -92 26 -114 31
-399 l4 -303 -341 0 -341 0 0 260 c0 207 -3 268 -15 296 -14 35 -15 35 -67 32
-88 -5 -83 47 -83 -798 0 -845 -5 -793 83 -798 52 -3 53 -3 67 32 12 28 15 94
15 336 l0 300 341 0 341 0 -4 -342 c-5 -329 -6 -347 -31 -440 -61 -229 -177
-382 -360 -475 -241 -121 -594 -105 -811 37 -144 94 -249 250 -297 441 l-24
94 0 815 0 815 24 94 c76 305 291 504 591 550 94 14 281 5 371 -18z m-3431
-551 l0 -560 100 0 100 0 0 560 0 560 343 -2 342 -3 0 -1445 0 -1445 -342 -3
-343 -2 0 560 0 560 -100 0 -100 0 0 -560 0 -560 -345 0 -345 0 0 1450 0 1450
345 0 345 0 0 -560z m2410 220 l0 -330 -375 0 -375 0 0 -215 0 -215 305 0 305
0 0 -330 0 -330 -305 0 -305 0 0 -235 0 -235 375 0 375 0 0 -330 0 -330 -720
0 -720 0 0 1440 0 1440 720 0 720 0 0 -330z"/>
</g>
</svg>
