<?xml version="1.0" standalone="no"?>
<!DOCTYPE svg PUBLIC "-//W3C//DTD SVG 20010904//EN"
 "http://www.w3.org/TR/2001/REC-SVG-20010904/DTD/svg10.dtd">
<svg version="1.0" xmlns="http://www.w3.org/2000/svg"
 width="700.000000pt" height="700.000000pt" viewBox="0 0 700.000000 700.000000"
 preserveAspectRatio="xMidYMid meet">
<metadata>
Created by potrace 1.11, written by Peter Selinger 2001-2013
</metadata>
<g transform="translate(0.000000,700.000000) scale(0.100000,-0.100000)"
fill="#000000" stroke="none">
<path d="M18 6983 c-13 -16 -15 -380 -13 -3168 2 -1732 3 -3155 4 -3161 1 -13
-5 -13 689 -14 409 0 433 -1 451 -19 17 -17 19 -37 17 -307 -1 -159 0 -295 2
-301 3 -10 173 -13 807 -13 l802 0 68 51 c262 199 611 378 955 493 101 33 293
87 355 100 33 7 70 15 100 21 53 12 79 17 190 35 106 17 180 27 345 45 226 24
507 24 890 0 33 -2 124 -12 180 -20 14 -2 45 -7 70 -10 61 -8 159 -24 190 -30
23 -5 74 -14 110 -20 8 -2 34 -8 57 -14 22 -6 61 -15 84 -20 124 -26 377 -108
529 -170 41 -17 81 -31 88 -31 9 0 12 662 12 3275 0 3227 0 3274 -19 3285 -14
7 -1115 10 -3484 10 -3287 0 -3465 -1 -3479 -17z m5872 -1091 c119 -20 132
-23 206 -48 108 -35 251 -111 300 -159 7 -6 25 -22 40 -36 32 -26 116 -125
152 -176 61 -88 130 -259 156 -384 8 -41 18 -87 22 -104 3 -16 8 -208 11 -427
5 -379 4 -397 -13 -406 -12 -6 -196 -9 -467 -8 -386 1 -449 3 -457 16 -6 9
-10 153 -11 335 -1 368 -2 383 -18 423 -31 74 -152 75 -192 1 -4 -9 -11 -45
-15 -80 -10 -95 -10 -1871 0 -1964 9 -90 27 -132 59 -144 34 -13 106 -5 127
14 34 31 40 103 40 505 0 340 2 391 16 404 14 14 70 16 470 16 l454 0 6 -25
c8 -31 -2 -873 -11 -930 -42 -277 -135 -476 -294 -636 -156 -155 -353 -242
-638 -280 -457 -60 -900 166 -1075 549 -33 71 -74 194 -82 243 -3 19 -10 57
-15 84 -20 107 -24 269 -24 1159 0 900 3 1053 24 1186 16 103 16 104 44 197
83 272 254 465 519 588 109 50 202 78 306 91 24 3 46 7 47 8 8 7 255 -3 313
-12z m-4698 -25 c14 -4 28 -15 30 -24 2 -10 4 -351 3 -758 -1 -850 -10 -774
98 -776 34 -1 74 -2 89 -3 15 -2 41 4 57 11 32 16 45 59 36 118 -10 65 -6
1395 4 1414 6 11 24 20 43 22 18 2 226 4 462 3 405 0 429 -1 442 -19 21 -28
21 -3982 0 -4011 -14 -18 -31 -19 -458 -20 -244 0 -453 3 -464 7 -12 4 -24 16
-28 26 -4 10 -7 345 -6 745 0 400 -2 739 -6 752 -8 33 -18 36 -135 37 -78 1
-104 -3 -118 -15 -16 -14 -17 -66 -15 -763 0 -411 -1 -753 -3 -760 -11 -28
-68 -31 -493 -29 -239 2 -440 4 -447 4 -6 1 -15 14 -20 29 -11 35 -10 3973 1
3991 4 8 16 16 26 20 24 9 867 7 902 -1z m3389 -13 c20 -24 19 -874 -1 -898
-12 -15 -59 -17 -507 -15 -380 1 -496 -1 -508 -11 -13 -11 -15 -56 -15 -296
l0 -283 23 -7 c12 -4 197 -8 410 -8 368 -1 389 -2 402 -20 21 -28 21 -851 0
-883 l-15 -22 -394 1 c-316 2 -397 0 -410 -11 -14 -12 -16 -50 -16 -317 l0
-304 23 -13 c18 -11 111 -14 503 -12 396 2 484 0 500 -12 18 -13 19 -34 19
-436 0 -232 -1 -432 -3 -444 -3 -13 -15 -25 -31 -30 -14 -5 -460 -9 -990 -8
-882 1 -964 2 -975 17 -9 13 -12 471 -13 2000 -2 1724 0 1986 13 2006 l14 22
979 0 c888 0 980 -1 992 -16z"/>
</g>
</svg>
