<?xml version="1.0" encoding="utf-8"?>
<!-- Generator: Adobe Illustrator 16.0.4, SVG Export Plug-In . SVG Version: 6.00 Build 0)  -->
<!DOCTYPE svg PUBLIC "-//W3C//DTD SVG 1.1//EN" "http://www.w3.org/Graphics/SVG/1.1/DTD/svg11.dtd">
<svg version="1.1" id="Layer_1" xmlns="http://www.w3.org/2000/svg" xmlns:xlink="http://www.w3.org/1999/xlink" x="0px" y="0px"
	 width="500px" height="375px" viewBox="0 0 500 375" enable-background="new 0 0 500 375" xml:space="preserve">
<g>
	<rect x="0.5" y="0" fill="#E0F4FC" width="500.081" height="375.061"/>
	<path fill="#A2DFFF" d="M180.952,94.619c0-0.289-0.234-0.522-0.522-0.522h-4.583c-0.288,0-0.522,0.233-0.522,0.522
		c0,0.288,0.234,0.521,0.522,0.521h4.583C180.718,95.14,180.952,94.907,180.952,94.619z"/>
	<path fill="#A2DFFF" d="M173.027,263.806h-4.584c-0.288,0-0.521,0.234-0.521,0.522s0.233,0.522,0.521,0.522h4.584
		c0.288,0,0.521-0.234,0.521-0.522S173.315,263.806,173.027,263.806z"/>
	<path fill="#A2DFFF" d="M182.196,263.806h-4.584c-0.288,0-0.522,0.234-0.522,0.522s0.234,0.522,0.522,0.522h4.584
		c0.288,0,0.521-0.234,0.521-0.522S182.484,263.806,182.196,263.806z"/>
	<path fill="#A2DFFF" d="M171.783,94.619c0-0.289-0.233-0.522-0.521-0.522h-4.585c-0.288,0-0.521,0.233-0.521,0.522
		c0,0.288,0.234,0.521,0.521,0.521h4.585C171.55,95.14,171.783,94.907,171.783,94.619z"/>
	<path fill="#A2DFFF" d="M190.119,94.619c0-0.289-0.233-0.522-0.521-0.522h-4.584c-0.288,0-0.521,0.233-0.521,0.522
		c0,0.288,0.234,0.521,0.521,0.521h4.584C189.886,95.14,190.119,94.907,190.119,94.619z"/>
	<path fill="#A2DFFF" d="M145.523,263.806h-4.583c-0.288,0-0.522,0.234-0.522,0.522s0.234,0.521,0.522,0.521h4.583
		c0.289,0,0.522-0.233,0.522-0.521S145.812,263.806,145.523,263.806z"/>
	<path fill="#A2DFFF" d="M163.859,263.806h-4.584c-0.288,0-0.522,0.234-0.522,0.522s0.234,0.522,0.522,0.522h4.584
		c0.288,0,0.522-0.234,0.522-0.522S164.147,263.806,163.859,263.806z"/>
	<path fill="#A2DFFF" d="M153.447,94.619c0-0.289-0.233-0.522-0.521-0.522h-4.584c-0.289,0-0.522,0.233-0.522,0.522
		c0,0.288,0.233,0.521,0.522,0.521h4.584C153.213,95.14,153.447,94.907,153.447,94.619z"/>
	<path fill="#A2DFFF" d="M191.364,263.806h-4.584c-0.288,0-0.521,0.234-0.521,0.522s0.233,0.522,0.521,0.522h4.584
		c0.288,0,0.522-0.234,0.522-0.522S191.652,263.806,191.364,263.806z"/>
	<path fill="#A2DFFF" d="M162.615,94.619c0-0.289-0.234-0.522-0.522-0.522h-4.584c-0.288,0-0.521,0.233-0.521,0.522
		c0,0.288,0.233,0.521,0.521,0.521h4.584C162.381,95.14,162.615,94.907,162.615,94.619z"/>
	<path fill="#A2DFFF" d="M154.691,263.806h-4.584c-0.288,0-0.521,0.234-0.521,0.522s0.234,0.521,0.521,0.521h4.584
		c0.288,0,0.521-0.233,0.521-0.521S154.979,263.806,154.691,263.806z"/>
	<path fill="#A2DFFF" d="M237.204,263.806h-4.584c-0.288,0-0.521,0.234-0.521,0.522s0.233,0.522,0.521,0.522h4.584
		c0.288,0,0.521-0.234,0.521-0.522S237.492,263.806,237.204,263.806z"/>
	<path fill="#A2DFFF" d="M235.96,94.619c0-0.289-0.233-0.522-0.521-0.522h-4.584c-0.289,0-0.522,0.233-0.522,0.522
		c0,0.288,0.233,0.521,0.522,0.521h4.584C235.727,95.14,235.96,94.907,235.96,94.619z"/>
	<path fill="#A2DFFF" d="M226.792,94.619c0-0.289-0.233-0.522-0.521-0.522h-4.584c-0.289,0-0.521,0.233-0.521,0.522
		c0,0.288,0.232,0.521,0.521,0.521h4.584C226.559,95.14,226.792,94.907,226.792,94.619z"/>
	<path fill="#A2DFFF" d="M199.288,94.619c0-0.289-0.233-0.522-0.522-0.522h-4.584c-0.288,0-0.521,0.233-0.521,0.522
		c0,0.288,0.233,0.521,0.521,0.521h4.584C199.054,95.14,199.288,94.907,199.288,94.619z"/>
	<path fill="#A2DFFF" d="M144.278,94.619c0-0.289-0.233-0.522-0.521-0.522h-4.584c-0.288,0-0.521,0.233-0.521,0.522
		c0,0.288,0.233,0.521,0.521,0.521h4.584C144.045,95.14,144.278,94.907,144.278,94.619z"/>
	<path fill="#A2DFFF" d="M245.128,94.619c0-0.289-0.233-0.522-0.521-0.522h-4.584c-0.288,0-0.521,0.233-0.521,0.522
		c0,0.288,0.233,0.521,0.521,0.521h4.584C244.895,95.14,245.128,94.907,245.128,94.619z"/>
	<path fill="#A2DFFF" d="M228.036,263.806h-4.584c-0.288,0-0.521,0.234-0.521,0.522s0.234,0.522,0.521,0.522h4.584
		c0.289,0,0.522-0.234,0.522-0.522S228.325,263.806,228.036,263.806z"/>
	<path fill="#A2DFFF" d="M200.532,263.806h-4.584c-0.288,0-0.522,0.234-0.522,0.522s0.234,0.522,0.522,0.522h4.584
		c0.288,0,0.521-0.234,0.521-0.522S200.82,263.806,200.532,263.806z"/>
	<path fill="#A2DFFF" d="M208.455,94.619c0-0.289-0.232-0.522-0.521-0.522h-4.584c-0.288,0-0.521,0.233-0.521,0.522
		c0,0.288,0.233,0.521,0.521,0.521h4.584C208.223,95.14,208.455,94.907,208.455,94.619z"/>
	<path fill="#A2DFFF" d="M217.624,94.619c0-0.289-0.233-0.522-0.521-0.522h-4.584c-0.288,0-0.522,0.233-0.522,0.522
		c0,0.288,0.234,0.521,0.522,0.521h4.584C217.39,95.14,217.624,94.907,217.624,94.619z"/>
	<path fill="#A2DFFF" d="M218.868,263.806h-4.584c-0.288,0-0.522,0.234-0.522,0.522s0.234,0.522,0.522,0.522h4.584
		c0.288,0,0.521-0.234,0.521-0.522S219.156,263.806,218.868,263.806z"/>
	<path fill="#A2DFFF" d="M209.7,263.806h-4.583c-0.288,0-0.522,0.234-0.522,0.522s0.234,0.522,0.522,0.522h4.583
		c0.289,0,0.522-0.234,0.522-0.522S209.988,263.806,209.7,263.806z"/>
	<path fill="#A2DFFF" d="M117.185,164.834c0.288,0,0.521-0.233,0.521-0.521v-4.585c0-0.288-0.233-0.521-0.521-0.521
		s-0.522,0.233-0.522,0.521v4.585C116.663,164.601,116.897,164.834,117.185,164.834z"/>
	<path fill="#A2DFFF" d="M117.185,155.666c0.288,0,0.521-0.233,0.521-0.521v-4.584c0-0.288-0.233-0.522-0.521-0.522
		s-0.522,0.234-0.522,0.522v4.584C116.663,155.432,116.897,155.666,117.185,155.666z"/>
	<path fill="#A2DFFF" d="M246.373,263.806h-4.584c-0.288,0-0.522,0.234-0.522,0.522s0.234,0.522,0.522,0.522h4.584
		c0.287,0,0.521-0.234,0.521-0.522S246.66,263.806,246.373,263.806z"/>
	<path fill="#A2DFFF" d="M117.185,174.002c0.288,0,0.521-0.234,0.521-0.522v-4.583c0-0.289-0.233-0.522-0.521-0.522
		s-0.522,0.233-0.522,0.522v4.583C116.663,173.768,116.897,174.002,117.185,174.002z"/>
	<path fill="#A2DFFF" d="M117.185,192.338c0.288,0,0.521-0.233,0.521-0.521v-4.584c0-0.288-0.233-0.522-0.521-0.522
		s-0.522,0.234-0.522,0.522v4.584C116.663,192.104,116.897,192.338,117.185,192.338z"/>
	<path fill="#A2DFFF" d="M117.185,183.17c0.288,0,0.521-0.233,0.521-0.521v-4.584c0-0.288-0.233-0.521-0.521-0.521
		s-0.522,0.233-0.522,0.521v4.584C116.663,182.937,116.897,183.17,117.185,183.17z"/>
	<path fill="#A2DFFF" d="M117.185,146.498c0.288,0,0.521-0.233,0.521-0.521v-4.584c0-0.289-0.233-0.521-0.521-0.521
		s-0.522,0.233-0.522,0.521v4.584C116.663,146.264,116.897,146.498,117.185,146.498z"/>
	<path fill="#A2DFFF" d="M117.185,100.657c0.288,0,0.521-0.234,0.521-0.522v-4.584c0-0.288-0.233-0.521-0.521-0.521
		s-0.522,0.233-0.522,0.521v4.584C116.663,100.423,116.897,100.657,117.185,100.657z"/>
	<path fill="#A2DFFF" d="M117.185,109.825c0.288,0,0.521-0.233,0.521-0.521v-4.584c0-0.288-0.233-0.522-0.521-0.522
		s-0.522,0.234-0.522,0.522v4.584C116.663,109.591,116.897,109.825,117.185,109.825z"/>
	<path fill="#A2DFFF" d="M117.185,128.161c0.288,0,0.521-0.233,0.521-0.521v-4.584c0-0.288-0.233-0.521-0.521-0.521
		s-0.522,0.233-0.522,0.521v4.584C116.663,127.928,116.897,128.161,117.185,128.161z"/>
	<path fill="#A2DFFF" d="M117.185,118.993c0.288,0,0.521-0.233,0.521-0.522v-4.583c0-0.288-0.233-0.522-0.521-0.522
		s-0.522,0.234-0.522,0.522v4.583C116.663,118.76,116.897,118.993,117.185,118.993z"/>
	<path fill="#A2DFFF" d="M117.185,137.33c0.288,0,0.521-0.234,0.521-0.522v-4.584c0-0.288-0.233-0.522-0.521-0.522
		s-0.522,0.234-0.522,0.522v4.584C116.663,137.096,116.897,137.33,117.185,137.33z"/>
	<path fill="#A2DFFF" d="M127.187,263.806h-4.584c-0.288,0-0.521,0.234-0.521,0.522s0.233,0.521,0.521,0.521h4.584
		c0.288,0,0.522-0.233,0.522-0.521S127.475,263.806,127.187,263.806z"/>
	<path fill="#A2DFFF" d="M125.942,94.619c0-0.289-0.233-0.522-0.521-0.522h-4.584c-0.288,0-0.521,0.233-0.521,0.521
		c0,0.289,0.233,0.522,0.521,0.522h4.584C125.709,95.14,125.942,94.907,125.942,94.619z"/>
	<path fill="#A2DFFF" d="M118.019,263.806h-0.312v-3.229c0-0.288-0.233-0.521-0.521-0.521s-0.522,0.233-0.522,0.521v3.75
		c0,0.288,0.234,0.521,0.522,0.521h0.833c0.288,0,0.522-0.233,0.522-0.521S118.307,263.806,118.019,263.806z"/>
	<path fill="#A2DFFF" d="M117.185,201.506c0.288,0,0.521-0.234,0.521-0.522V196.4c0-0.288-0.233-0.521-0.521-0.521
		s-0.522,0.233-0.522,0.521v4.584C116.663,201.272,116.897,201.506,117.185,201.506z"/>
	<path fill="#A2DFFF" d="M117.185,256.516c0.288,0,0.521-0.234,0.521-0.522v-4.584c0-0.288-0.233-0.521-0.521-0.521
		s-0.522,0.233-0.522,0.521v4.584C116.663,256.281,116.897,256.516,117.185,256.516z"/>
	<path fill="#A2DFFF" d="M136.355,263.806h-4.585c-0.288,0-0.521,0.234-0.521,0.522s0.233,0.521,0.521,0.521h4.585
		c0.288,0,0.521-0.233,0.521-0.521S136.644,263.806,136.355,263.806z"/>
	<path fill="#A2DFFF" d="M135.11,94.619c0-0.289-0.233-0.522-0.521-0.522h-4.584c-0.288,0-0.522,0.233-0.522,0.522
		c0,0.288,0.234,0.521,0.522,0.521h4.584C134.877,95.14,135.11,94.907,135.11,94.619z"/>
	<path fill="#A2DFFF" d="M117.185,210.674c0.288,0,0.521-0.233,0.521-0.521v-4.584c0-0.289-0.233-0.522-0.521-0.522
		s-0.522,0.233-0.522,0.522v4.584C116.663,210.441,116.897,210.674,117.185,210.674z"/>
	<path fill="#A2DFFF" d="M117.185,219.843c0.288,0,0.521-0.234,0.521-0.522v-4.584c0-0.288-0.233-0.521-0.521-0.521
		s-0.522,0.233-0.522,0.521v4.584C116.663,219.609,116.897,219.843,117.185,219.843z"/>
	<path fill="#A2DFFF" d="M117.185,238.179c0.288,0,0.521-0.233,0.521-0.522v-4.583c0-0.289-0.233-0.522-0.521-0.522
		s-0.522,0.233-0.522,0.522v4.583C116.663,237.945,116.897,238.179,117.185,238.179z"/>
	<path fill="#A2DFFF" d="M117.185,247.347c0.288,0,0.521-0.233,0.521-0.521v-4.584c0-0.288-0.233-0.521-0.521-0.521
		s-0.522,0.234-0.522,0.521v4.584C116.663,247.114,116.897,247.347,117.185,247.347z"/>
	<path fill="#A2DFFF" d="M117.185,229.011c0.288,0,0.521-0.233,0.521-0.521v-4.584c0-0.288-0.233-0.522-0.521-0.522
		s-0.522,0.234-0.522,0.522v4.584C116.663,228.777,116.897,229.011,117.185,229.011z"/>
	<path fill="#A2DFFF" d="M373.482,94.619c0-0.289-0.233-0.522-0.521-0.522h-4.585c-0.287,0-0.521,0.233-0.521,0.522
		c0,0.288,0.234,0.521,0.521,0.521h4.585C373.249,95.14,373.482,94.907,373.482,94.619z"/>
	<path fill="#A2DFFF" d="M383.896,225.269c-0.288,0-0.522,0.233-0.522,0.521v4.584c0,0.288,0.234,0.522,0.522,0.522
		s0.521-0.234,0.521-0.522v-4.584C384.417,225.502,384.184,225.269,383.896,225.269z"/>
	<path fill="#A2DFFF" d="M364.313,94.619c0-0.289-0.233-0.522-0.521-0.522h-4.584c-0.288,0-0.521,0.233-0.521,0.522
		c0,0.288,0.233,0.521,0.521,0.521h4.584C364.08,95.14,364.313,94.907,364.313,94.619z"/>
	<path fill="#A2DFFF" d="M383.896,216.101c-0.288,0-0.522,0.234-0.522,0.522v4.584c0,0.288,0.234,0.521,0.522,0.521
		s0.521-0.234,0.521-0.521v-4.584C384.417,216.334,384.184,216.101,383.896,216.101z"/>
	<path fill="#A2DFFF" d="M383.896,206.932c-0.288,0-0.522,0.234-0.522,0.522v4.584c0,0.288,0.234,0.521,0.522,0.521
		s0.521-0.233,0.521-0.521v-4.584C384.417,207.166,384.184,206.932,383.896,206.932z"/>
	<path fill="#A2DFFF" d="M383.896,243.604c-0.288,0-0.522,0.234-0.522,0.522v4.584c0,0.288,0.234,0.522,0.522,0.522
		s0.521-0.234,0.521-0.522v-4.584C384.417,243.838,384.184,243.604,383.896,243.604z"/>
	<path fill="#A2DFFF" d="M365.559,263.806h-4.585c-0.287,0-0.521,0.234-0.521,0.522s0.234,0.522,0.521,0.522h4.585
		c0.288,0,0.521-0.234,0.521-0.522S365.847,263.806,365.559,263.806z"/>
	<path fill="#A2DFFF" d="M383.896,252.773c-0.288,0-0.522,0.233-0.522,0.521v4.584c0,0.288,0.234,0.522,0.522,0.522
		s0.521-0.234,0.521-0.522v-4.584C384.417,253.006,384.184,252.773,383.896,252.773z"/>
	<path fill="#A2DFFF" d="M374.727,263.806h-4.584c-0.288,0-0.521,0.234-0.521,0.522s0.233,0.522,0.521,0.522h4.584
		c0.288,0,0.521-0.234,0.521-0.522S375.015,263.806,374.727,263.806z"/>
	<path fill="#A2DFFF" d="M254.297,94.619c0-0.289-0.234-0.522-0.521-0.522h-4.584c-0.289,0-0.522,0.233-0.522,0.522
		c0,0.288,0.234,0.521,0.522,0.521h4.584C254.062,95.14,254.297,94.907,254.297,94.619z"/>
	<path fill="#A2DFFF" d="M382.65,94.619c0-0.289-0.234-0.522-0.521-0.522h-4.584c-0.289,0-0.522,0.233-0.522,0.522
		c0,0.288,0.233,0.521,0.522,0.521h4.584C382.416,95.14,382.65,94.907,382.65,94.619z"/>
	<path fill="#A2DFFF" d="M383.896,261.941c-0.288,0-0.522,0.233-0.522,0.521v1.343h-4.062c-0.288,0-0.521,0.234-0.521,0.522
		s0.233,0.522,0.521,0.522h4.585c0.288,0,0.521-0.234,0.521-0.522v-1.865C384.417,262.175,384.184,261.941,383.896,261.941z"/>
	<path fill="#A2DFFF" d="M383.896,234.437c-0.288,0-0.522,0.233-0.522,0.521v4.584c0,0.289,0.234,0.521,0.522,0.521
		s0.521-0.233,0.521-0.521v-4.584C384.417,234.67,384.184,234.437,383.896,234.437z"/>
	<path fill="#A2DFFF" d="M383.896,133.587c-0.288,0-0.522,0.233-0.522,0.521v4.584c0,0.288,0.234,0.522,0.522,0.522
		s0.521-0.234,0.521-0.522v-4.584C384.417,133.82,384.184,133.587,383.896,133.587z"/>
	<path fill="#A2DFFF" d="M383.896,188.596c-0.288,0-0.522,0.234-0.522,0.522v4.584c0,0.288,0.234,0.522,0.522,0.522
		s0.521-0.234,0.521-0.522v-4.584C384.417,188.83,384.184,188.596,383.896,188.596z"/>
	<path fill="#A2DFFF" d="M383.896,115.251c-0.288,0-0.522,0.233-0.522,0.521v4.584c0,0.289,0.234,0.521,0.522,0.521
		s0.521-0.233,0.521-0.521v-4.584C384.417,115.484,384.184,115.251,383.896,115.251z"/>
	<path fill="#A2DFFF" d="M383.896,96.915c-0.288,0-0.522,0.233-0.522,0.521v4.584c0,0.288,0.234,0.521,0.522,0.521
		s0.521-0.233,0.521-0.521v-4.584C384.417,97.148,384.184,96.915,383.896,96.915z"/>
	<path fill="#A2DFFF" d="M383.896,106.083c-0.288,0-0.522,0.233-0.522,0.521v4.584c0,0.288,0.234,0.521,0.522,0.521
		s0.521-0.233,0.521-0.521v-4.584C384.417,106.316,384.184,106.083,383.896,106.083z"/>
	<path fill="#A2DFFF" d="M383.896,124.419c-0.288,0-0.522,0.234-0.522,0.522v4.584c0,0.288,0.234,0.522,0.522,0.522
		s0.521-0.234,0.521-0.522v-4.584C384.417,124.653,384.184,124.419,383.896,124.419z"/>
	<path fill="#A2DFFF" d="M383.896,179.428c-0.288,0-0.522,0.234-0.522,0.522v4.584c0,0.288,0.234,0.521,0.522,0.521
		s0.521-0.233,0.521-0.521v-4.584C384.417,179.662,384.184,179.428,383.896,179.428z"/>
	<path fill="#A2DFFF" d="M383.896,142.755c-0.288,0-0.522,0.233-0.522,0.522v4.583c0,0.289,0.234,0.521,0.522,0.521
		s0.521-0.233,0.521-0.521v-4.583C384.417,142.989,384.184,142.755,383.896,142.755z"/>
	<path fill="#A2DFFF" d="M383.896,170.26c-0.288,0-0.522,0.233-0.522,0.521v4.583c0,0.289,0.234,0.522,0.522,0.522
		s0.521-0.233,0.521-0.522v-4.583C384.417,170.493,384.184,170.26,383.896,170.26z"/>
	<path fill="#A2DFFF" d="M383.896,161.091c-0.288,0-0.522,0.234-0.522,0.522v4.584c0,0.288,0.234,0.521,0.522,0.521
		s0.521-0.233,0.521-0.521v-4.584C384.417,161.325,384.184,161.091,383.896,161.091z"/>
	<path fill="#A2DFFF" d="M383.896,151.924c-0.288,0-0.522,0.233-0.522,0.521v4.584c0,0.288,0.234,0.522,0.522,0.522
		s0.521-0.234,0.521-0.522v-4.584C384.417,152.157,384.184,151.924,383.896,151.924z"/>
	<path fill="#A2DFFF" d="M383.896,197.765c-0.288,0-0.522,0.233-0.522,0.521v4.584c0,0.288,0.234,0.521,0.522,0.521
		s0.521-0.233,0.521-0.521v-4.584C384.417,197.998,384.184,197.765,383.896,197.765z"/>
	<path fill="#A2DFFF" d="M283.046,263.806h-4.584c-0.288,0-0.522,0.234-0.522,0.522s0.234,0.522,0.522,0.522h4.584
		c0.287,0,0.521-0.234,0.521-0.522S283.333,263.806,283.046,263.806z"/>
	<path fill="#A2DFFF" d="M290.969,94.619c0-0.289-0.232-0.522-0.521-0.522h-4.584c-0.289,0-0.522,0.233-0.522,0.522
		c0,0.288,0.233,0.521,0.522,0.521h4.584C290.736,95.14,290.969,94.907,290.969,94.619z"/>
	<path fill="#A2DFFF" d="M292.213,263.806h-4.584c-0.289,0-0.521,0.234-0.521,0.522s0.232,0.522,0.521,0.522h4.584
		c0.289,0,0.522-0.234,0.522-0.522S292.502,263.806,292.213,263.806z"/>
	<path fill="#A2DFFF" d="M281.801,94.619c0-0.289-0.233-0.522-0.521-0.522h-4.584c-0.289,0-0.521,0.233-0.521,0.522
		c0,0.288,0.232,0.521,0.521,0.521h4.584C281.567,95.14,281.801,94.907,281.801,94.619z"/>
	<path fill="#A2DFFF" d="M300.137,94.619c0-0.289-0.232-0.522-0.521-0.522h-4.583c-0.288,0-0.522,0.233-0.522,0.522
		c0,0.288,0.234,0.521,0.522,0.521h4.583C299.904,95.14,300.137,94.907,300.137,94.619z"/>
	<path fill="#A2DFFF" d="M301.381,263.806h-4.583c-0.288,0-0.522,0.234-0.522,0.522s0.234,0.522,0.522,0.522h4.583
		c0.289,0,0.521-0.234,0.521-0.522S301.67,263.806,301.381,263.806z"/>
	<path fill="#A2DFFF" d="M255.541,263.806h-4.584c-0.289,0-0.521,0.234-0.521,0.522s0.232,0.522,0.521,0.522h4.584
		c0.287,0,0.521-0.234,0.521-0.522S255.828,263.806,255.541,263.806z"/>
	<path fill="#A2DFFF" d="M263.465,94.619c0-0.289-0.234-0.522-0.522-0.522h-4.584c-0.288,0-0.521,0.233-0.521,0.522
		c0,0.288,0.233,0.521,0.521,0.521h4.584C263.23,95.14,263.465,94.907,263.465,94.619z"/>
	<path fill="#A2DFFF" d="M264.709,263.806h-4.584c-0.289,0-0.521,0.234-0.521,0.522s0.232,0.522,0.521,0.522h4.584
		c0.289,0,0.521-0.234,0.521-0.522S264.998,263.806,264.709,263.806z"/>
	<path fill="#A2DFFF" d="M273.877,263.806h-4.584c-0.288,0-0.522,0.234-0.522,0.522s0.234,0.522,0.522,0.522h4.584
		c0.288,0,0.521-0.234,0.521-0.522S274.165,263.806,273.877,263.806z"/>
	<path fill="#A2DFFF" d="M272.632,94.619c0-0.289-0.232-0.522-0.521-0.522h-4.583c-0.288,0-0.522,0.233-0.522,0.522
		c0,0.288,0.234,0.521,0.522,0.521h4.583C272.399,95.14,272.632,94.907,272.632,94.619z"/>
	<path fill="#A2DFFF" d="M318.474,94.619c0-0.289-0.234-0.522-0.522-0.522h-4.583c-0.289,0-0.522,0.233-0.522,0.522
		c0,0.288,0.233,0.521,0.522,0.521h4.583C318.239,95.14,318.474,94.907,318.474,94.619z"/>
	<path fill="#A2DFFF" d="M345.978,94.619c0-0.289-0.233-0.522-0.521-0.522h-4.583c-0.289,0-0.523,0.233-0.523,0.522
		c0,0.288,0.234,0.521,0.523,0.521h4.583C345.744,95.14,345.978,94.907,345.978,94.619z"/>
	<path fill="#A2DFFF" d="M338.055,263.806h-4.585c-0.288,0-0.521,0.234-0.521,0.522s0.233,0.522,0.521,0.522h4.585
		c0.288,0,0.521-0.234,0.521-0.522S338.343,263.806,338.055,263.806z"/>
	<path fill="#A2DFFF" d="M309.305,94.619c0-0.289-0.232-0.522-0.521-0.522h-4.584c-0.288,0-0.521,0.233-0.521,0.522
		c0,0.288,0.233,0.521,0.521,0.521h4.584C309.072,95.14,309.305,94.907,309.305,94.619z"/>
	<path fill="#A2DFFF" d="M347.222,263.806h-4.583c-0.289,0-0.522,0.234-0.522,0.522s0.233,0.522,0.522,0.522h4.583
		c0.288,0,0.522-0.234,0.522-0.522S347.51,263.806,347.222,263.806z"/>
	<path fill="#A2DFFF" d="M355.146,94.619c0-0.289-0.234-0.522-0.521-0.522h-4.585c-0.288,0-0.521,0.233-0.521,0.522
		c0,0.288,0.233,0.521,0.521,0.521h4.585C354.912,95.14,355.146,94.907,355.146,94.619z"/>
	<path fill="#A2DFFF" d="M336.81,94.619c0-0.289-0.233-0.522-0.522-0.522h-4.584c-0.287,0-0.521,0.233-0.521,0.522
		c0,0.288,0.234,0.521,0.521,0.521h4.584C336.576,95.14,336.81,94.907,336.81,94.619z"/>
	<path fill="#A2DFFF" d="M356.391,263.806h-4.585c-0.286,0-0.521,0.234-0.521,0.522s0.234,0.522,0.521,0.522h4.585
		c0.287,0,0.521-0.234,0.521-0.522S356.678,263.806,356.391,263.806z"/>
	<path fill="#A2DFFF" d="M310.551,263.806h-4.586c-0.288,0-0.52,0.234-0.52,0.522s0.231,0.522,0.52,0.522h4.586
		c0.287,0,0.521-0.234,0.521-0.522S310.838,263.806,310.551,263.806z"/>
	<path fill="#A2DFFF" d="M319.718,263.806h-4.584c-0.289,0-0.522,0.234-0.522,0.522s0.233,0.522,0.522,0.522h4.584
		c0.288,0,0.521-0.234,0.521-0.522S320.006,263.806,319.718,263.806z"/>
	<path fill="#A2DFFF" d="M328.886,263.806h-4.583c-0.289,0-0.522,0.234-0.522,0.522s0.233,0.522,0.522,0.522h4.583
		c0.289,0,0.521-0.234,0.521-0.522S329.175,263.806,328.886,263.806z"/>
	<path fill="#A2DFFF" d="M327.642,94.619c0-0.289-0.233-0.522-0.521-0.522h-4.585c-0.287,0-0.521,0.233-0.521,0.522
		c0,0.288,0.233,0.521,0.521,0.521h4.585C327.408,95.14,327.642,94.907,327.642,94.619z"/>
	<g>
		<g>
			<g>
				<rect x="85.428" y="189.018" fill="#6EBDFF" width="11.425" height="15.023"/>
				<path fill="#1977CC" d="M96.853,188.476H85.428c-0.3,0-0.542,0.243-0.542,0.542v15.023c0,0.298,0.243,0.542,0.542,0.542h11.425
					c0.299,0,0.542-0.243,0.542-0.542v-15.023C97.394,188.718,97.151,188.476,96.853,188.476z M96.311,203.499H85.969v-13.939
					h10.342V203.499z"/>
			</g>
			<g>
				<rect x="96.853" y="189.018" fill="#A2DFFF" width="11.425" height="15.023"/>
				<path fill="#1977CC" d="M108.277,188.476H96.853c-0.3,0-0.542,0.243-0.542,0.542v15.023c0,0.298,0.242,0.542,0.542,0.542h11.425
					c0.299,0,0.542-0.243,0.542-0.542v-15.023C108.819,188.718,108.576,188.476,108.277,188.476z M107.735,203.499H97.394v-13.939
					h10.341V203.499z"/>
			</g>
		</g>
		<g>
			<g>
				<g>
					<g>
						<polygon fill="#A2DFFF" points="96.572,208.438 119.548,301.743 123.632,301.743 100.655,208.438 						"/>
						<path fill="#1977CC" d="M101.182,208.309c-0.06-0.242-0.277-0.412-0.526-0.412h-4.083c-0.167,0-0.324,0.077-0.427,0.208
							c-0.103,0.131-0.14,0.302-0.1,0.463l22.977,93.305c0.06,0.242,0.276,0.412,0.525,0.412h4.084c0.167,0,0.324-0.077,0.426-0.208
							c0.103-0.131,0.14-0.301,0.1-0.463L101.182,208.309z M119.973,301.201L97.263,208.98h2.968l22.71,92.221H119.973z"/>
					</g>
					<g>
						<path fill="#1977CC" d="M118.149,207.896H99.536c-0.299,0-0.542,0.243-0.542,0.542c0,0.3,0.243,0.542,0.542,0.542h18.613
							c0.299,0,0.542-0.243,0.542-0.542C118.69,208.139,118.448,207.896,118.149,207.896z"/>
						<path fill="#1977CC" d="M121.057,219.56h-18.613c-0.299,0-0.542,0.243-0.542,0.542c0,0.3,0.242,0.542,0.542,0.542h18.613
							c0.3,0,0.542-0.243,0.542-0.542C121.599,219.802,121.356,219.56,121.057,219.56z"/>
						<path fill="#1977CC" d="M132.688,266.212h-18.613c-0.299,0-0.542,0.242-0.542,0.542s0.243,0.542,0.542,0.542h18.613
							c0.299,0,0.542-0.243,0.542-0.542S132.987,266.212,132.688,266.212z"/>
						<path fill="#1977CC" d="M123.965,231.223h-18.613c-0.299,0-0.541,0.243-0.541,0.542c0,0.3,0.242,0.542,0.541,0.542h18.613
							c0.299,0,0.541-0.243,0.541-0.542C124.506,231.465,124.264,231.223,123.965,231.223z"/>
						<path fill="#1977CC" d="M135.597,277.875h-18.613c-0.299,0-0.542,0.242-0.542,0.542s0.243,0.542,0.542,0.542h18.613
							c0.299,0,0.541-0.243,0.541-0.542S135.896,277.875,135.597,277.875z"/>
						<path fill="#1977CC" d="M126.873,242.886H108.26c-0.299,0-0.542,0.243-0.542,0.542c0,0.3,0.243,0.542,0.542,0.542h18.613
							c0.299,0,0.542-0.242,0.542-0.542C127.415,243.128,127.172,242.886,126.873,242.886z"/>
						<path fill="#1977CC" d="M129.78,254.549h-18.613c-0.299,0-0.542,0.243-0.542,0.542c0,0.3,0.242,0.542,0.542,0.542h18.613
							c0.299,0,0.542-0.242,0.542-0.542C130.322,254.792,130.08,254.549,129.78,254.549z"/>
						<path fill="#1977CC" d="M141.412,301.201h-18.613c-0.299,0-0.542,0.242-0.542,0.542s0.242,0.542,0.542,0.542h18.613
							c0.299,0,0.542-0.243,0.542-0.542C141.954,301.444,141.711,301.201,141.412,301.201z"/>
						<path fill="#1977CC" d="M138.504,289.538h-18.613c-0.299,0-0.542,0.242-0.542,0.542s0.243,0.542,0.542,0.542h18.613
							c0.299,0,0.542-0.243,0.542-0.542S138.804,289.538,138.504,289.538z"/>
					</g>
					<g>
						<polygon fill="#A2DFFF" points="116.363,208.438 139.34,301.743 143.425,301.743 120.447,208.438 						"/>
						<path fill="#1977CC" d="M120.974,208.309c-0.06-0.242-0.277-0.412-0.526-0.412h-4.084c-0.167,0-0.323,0.077-0.426,0.208
							c-0.103,0.131-0.139,0.302-0.1,0.463l22.977,93.305c0.06,0.242,0.276,0.412,0.526,0.412h4.084
							c0.166,0,0.323-0.077,0.426-0.208c0.103-0.131,0.14-0.301,0.1-0.463L120.974,208.309z M139.765,301.201l-22.71-92.221h2.969
							l22.709,92.221H139.765z"/>
					</g>
				</g>
				<g>
					<g>
						<polygon fill="#A2DFFF" points="61.972,301.743 66.055,301.743 89.032,208.438 84.948,208.438 						"/>
						<path fill="#1977CC" d="M89.032,207.896h-4.084c-0.25,0-0.466,0.17-0.526,0.412l-22.976,93.305
							c-0.04,0.162-0.003,0.332,0.1,0.463c0.103,0.131,0.26,0.208,0.427,0.208h4.083c0.25,0,0.466-0.17,0.526-0.412l22.976-93.305
							c0.04-0.162,0.003-0.333-0.099-0.463C89.356,207.973,89.199,207.896,89.032,207.896z M65.631,301.201h-2.968l22.709-92.221
							h2.968L65.631,301.201z"/>
					</g>
					<g>
						<path fill="#1977CC" d="M105.859,207.896H87.246c-0.299,0-0.541,0.243-0.541,0.542c0,0.3,0.242,0.542,0.541,0.542h18.613
							c0.3,0,0.542-0.243,0.542-0.542C106.401,208.139,106.159,207.896,105.859,207.896z"/>
						<path fill="#1977CC" d="M102.951,219.56H84.339c-0.3,0-0.542,0.243-0.542,0.542c0,0.3,0.242,0.542,0.542,0.542h18.612
							c0.3,0,0.542-0.243,0.542-0.542C103.493,219.802,103.251,219.56,102.951,219.56z"/>
						<path fill="#1977CC" d="M91.319,266.212H72.707c-0.299,0-0.542,0.242-0.542,0.542s0.243,0.542,0.542,0.542h18.612
							c0.3,0,0.542-0.243,0.542-0.542S91.619,266.212,91.319,266.212z"/>
						<path fill="#1977CC" d="M100.043,231.223H81.431c-0.299,0-0.542,0.243-0.542,0.542c0,0.3,0.243,0.542,0.542,0.542h18.613
							c0.299,0,0.542-0.243,0.542-0.542C100.586,231.465,100.343,231.223,100.043,231.223z"/>
						<path fill="#1977CC" d="M88.412,277.875H69.799c-0.299,0-0.542,0.242-0.542,0.542s0.243,0.542,0.542,0.542h18.613
							c0.299,0,0.542-0.243,0.542-0.542S88.711,277.875,88.412,277.875z"/>
						<path fill="#1977CC" d="M97.136,242.886H78.523c-0.299,0-0.542,0.243-0.542,0.542c0,0.3,0.243,0.542,0.542,0.542h18.613
							c0.299,0,0.542-0.242,0.542-0.542C97.678,243.128,97.435,242.886,97.136,242.886z"/>
						<path fill="#1977CC" d="M94.228,254.549H75.615c-0.3,0-0.542,0.243-0.542,0.542c0,0.3,0.242,0.542,0.542,0.542h18.613
							c0.299,0,0.542-0.242,0.542-0.542C94.77,254.792,94.527,254.549,94.228,254.549z"/>
						<path fill="#1977CC" d="M82.596,301.201H63.983c-0.299,0-0.542,0.242-0.542,0.542s0.243,0.542,0.542,0.542h18.613
							c0.299,0,0.542-0.243,0.542-0.542S82.896,301.201,82.596,301.201z"/>
						<path fill="#1977CC" d="M85.504,289.538H66.891c-0.299,0-0.542,0.242-0.542,0.542s0.242,0.542,0.542,0.542h18.613
							c0.299,0,0.542-0.243,0.542-0.542S85.803,289.538,85.504,289.538z"/>
					</g>
					<g>
						<polygon fill="#E0F4FC" points="81.763,301.743 85.848,301.743 108.823,208.438 104.739,208.438 						"/>
						<path fill="#1977CC" d="M108.823,207.896h-4.084c-0.249,0-0.466,0.17-0.525,0.412l-22.977,93.305
							c-0.04,0.162-0.003,0.332,0.1,0.463c0.103,0.131,0.26,0.208,0.426,0.208h4.084c0.249,0,0.466-0.17,0.525-0.412l22.977-93.305
							c0.04-0.162,0.003-0.333-0.1-0.463C109.147,207.973,108.99,207.896,108.823,207.896z M85.423,301.201h-2.969l22.71-92.221
							h2.968L85.423,301.201z"/>
					</g>
				</g>
			</g>
			<g>
				<rect x="81.237" y="204.041" fill="#E0F4FC" width="42.922" height="4.397"/>
				<path fill="#1977CC" d="M124.159,203.499H81.237c-0.299,0-0.542,0.242-0.542,0.542v4.397c0,0.3,0.242,0.542,0.542,0.542h42.922
					c0.299,0,0.542-0.243,0.542-0.542v-4.397C124.701,203.741,124.458,203.499,124.159,203.499z M123.617,207.896H81.778v-3.314
					h41.839V207.896z"/>
			</g>
		</g>
	</g>
	<g>
		<g>
			<g>
				<rect x="333.545" y="265.037" fill="#6EBDFF" width="21.309" height="17.529"/>
				<path fill="#1977CC" d="M354.854,264.515h-21.309c-0.289,0-0.522,0.234-0.522,0.522v17.529c0,0.288,0.233,0.521,0.522,0.521
					h21.309c0.288,0,0.521-0.233,0.521-0.521v-17.529C355.375,264.749,355.142,264.515,354.854,264.515z M354.332,282.043h-20.266
					v-16.485h20.266V282.043z"/>
			</g>
			<g>
				<rect x="354.854" y="265.037" fill="#E0F4FC" width="21.623" height="17.529"/>
				<path fill="#1977CC" d="M376.477,264.515h-21.623c-0.288,0-0.521,0.234-0.521,0.522v17.529c0,0.288,0.233,0.521,0.521,0.521
					h21.623c0.287,0,0.521-0.233,0.521-0.521v-17.529C376.998,264.749,376.764,264.515,376.477,264.515z M375.954,282.043h-20.579
					v-16.485h20.579V282.043z"/>
			</g>
		</g>
		<g>
			<g>
				<g>
					
						<rect x="313.1" y="103.436" transform="matrix(-0.99 -0.1412 0.1412 -0.99 611.9174 257.9357)" fill="#FFFFFF" width="4.016" height="7.654"/>
					<path fill="#1977CC" d="M317.709,103.242l-3.975-0.567c-0.138-0.02-0.277,0.017-0.388,0.1c-0.11,0.083-0.185,0.207-0.203,0.344
						l-1.08,7.578c-0.02,0.137,0.015,0.276,0.099,0.387c0.083,0.111,0.207,0.184,0.344,0.204l3.976,0.567
						c0.024,0.004,0.05,0.005,0.075,0.005c0.255,0,0.478-0.187,0.515-0.447l1.082-7.579
						C318.192,103.547,317.994,103.283,317.709,103.242z M316.111,110.746l-2.941-0.42l0.932-6.545l2.944,0.42L316.111,110.746z"/>
				</g>
				<path fill="#E0F4FC" d="M314.64,104.63c0.55-0.346,2.021-1.486,2.446-2.026c0.388-0.496,0.054-0.514,0.461-1.104l-3.029,1.388
					L314.64,104.63z"/>
				<g>
					<path fill="#FFFFFF" d="M316.557,99.947l-3.312,3.082c0,0-1.511,2.168-2.181,3.451c-0.209,0.399-0.308,0.846-0.284,1.295
						l0.302,5.654l-1.348,6.109l5.085,0.687l1.687-11.766l-2.229-1.128l0.459-2.731l2.189-2.948c0.292-0.365,0.509-1.021,0.324-1.47
						C317.109,99.841,316.816,99.75,316.557,99.947z"/>
					<path fill="#1977CC" d="M317.066,99.354c-0.281-0.077-0.573-0.014-0.826,0.177c-0.013,0.011-0.027,0.022-0.04,0.034
						l-3.311,3.082c-0.027,0.025-0.052,0.053-0.073,0.083c-0.062,0.089-1.536,2.21-2.215,3.507c-0.252,0.481-0.37,1.022-0.342,1.564
						l0.297,5.583l-1.331,6.04c-0.032,0.143-0.002,0.292,0.083,0.412c0.082,0.119,0.212,0.199,0.355,0.218l5.085,0.687
						c0.023,0.003,0.046,0.005,0.071,0.005c0.255,0,0.479-0.188,0.515-0.448l1.688-11.766c0.041-0.285-0.158-0.55-0.443-0.591
						s-0.549,0.157-0.59,0.442l-1.614,11.254l-4.01-0.542l1.226-5.556c0.01-0.046,0.014-0.093,0.012-0.14l-0.302-5.654
						c-0.019-0.354,0.058-0.709,0.224-1.025c0.596-1.138,1.898-3.033,2.115-3.349l3.146-2.928c0.046,0.233-0.071,0.634-0.268,0.879
						c-0.005,0.005-0.009,0.01-0.011,0.015l-2.191,2.948c-0.049,0.066-0.082,0.143-0.096,0.225l-0.459,2.731
						c-0.048,0.284,0.144,0.554,0.429,0.601c0.284,0.048,0.552-0.144,0.601-0.428l0.438-2.608l2.11-2.84
						c0.396-0.501,0.658-1.342,0.393-1.986C317.6,99.657,317.362,99.435,317.066,99.354z"/>
				</g>
				<g>
					<g>
						
							<rect x="316.142" y="96.211" transform="matrix(-0.8703 -0.4926 0.4926 -0.8703 541.7695 349.3467)" fill="#C5EDF9" width="1.496" height="14.234"/>
						<path fill="#1977CC" d="M321.561,96.595l-1.301-0.736c-0.161-0.092-0.34-0.136-0.514-0.136c-0.363,0-0.716,0.19-0.907,0.529
							l-7.015,12.388c-0.136,0.24-0.172,0.526-0.097,0.792c0.073,0.267,0.25,0.494,0.491,0.629l1.302,0.737
							c0.158,0.09,0.335,0.135,0.515,0.135c0.093,0,0.187-0.013,0.277-0.038c0.268-0.074,0.494-0.25,0.631-0.492l7.012-12.387
							c0.137-0.241,0.172-0.526,0.098-0.793C321.979,96.958,321.803,96.731,321.561,96.595z M314.034,109.891l-1.302-0.737
							l7.014-12.388l1.301,0.737L314.034,109.891z"/>
					</g>
				</g>
				<g>
					<path fill="#FFFFFF" d="M317.212,104.508L317.212,104.508c-0.773-0.11-1.491,0.427-1.601,1.201l-0.575,4.033l-2.171,8.256
						c0.238-0.15,0.503-0.298,0.742-0.393c0.608-0.238,1.144-0.365,1.675-0.594c1.006-0.434,1.77-1.366,1.935-2.529l1.194-8.374
						C318.522,105.335,317.984,104.619,317.212,104.508z"/>
					<path fill="#1977CC" d="M317.285,103.992c-1.058-0.15-2.039,0.586-2.189,1.643l-0.576,4.033
						c-0.041,0.285,0.158,0.549,0.442,0.59c0.286,0.04,0.55-0.158,0.591-0.443l0.575-4.034c0.069-0.487,0.522-0.827,1.01-0.757
						c0.487,0.07,0.827,0.522,0.758,1.01l-1.194,8.374c-0.137,0.95-0.743,1.743-1.625,2.124c-0.267,0.115-0.544,0.205-0.836,0.301
						c-0.261,0.084-0.53,0.172-0.821,0.287c-0.242,0.094-0.521,0.241-0.833,0.438c-0.243,0.154-0.314,0.476-0.161,0.719
						c0.1,0.158,0.269,0.244,0.441,0.244c0.095,0,0.19-0.026,0.277-0.081c0.252-0.159,0.479-0.279,0.655-0.348
						c0.264-0.104,0.518-0.186,0.766-0.267c0.316-0.103,0.614-0.201,0.925-0.334c1.218-0.526,2.058-1.623,2.244-2.935l1.194-8.374
						C319.078,105.125,318.342,104.143,317.285,103.992z"/>
				</g>
				<g>
					<g>
						<polygon fill="#FFFFFF" points="321.047,97.503 321.678,94.971 319.746,96.766 						"/>
						<path fill="#1977CC" d="M321.715,93.928c-0.013,0-0.025,0-0.037,0s-0.021,0-0.031,0c-0.264,0.007-0.502,0.113-0.682,0.281
							l-1.93,1.793c-0.243,0.227-0.364,0.556-0.325,0.886c0.038,0.331,0.232,0.623,0.521,0.787l1.302,0.737
							c0.159,0.089,0.337,0.136,0.514,0.136c0.141,0,0.28-0.028,0.412-0.085c0.3-0.129,0.521-0.391,0.601-0.707l0.623-2.502
							c0.025-0.09,0.038-0.184,0.038-0.282C322.721,94.407,322.274,93.947,321.715,93.928z M321.678,96.014L321.678,96.014
							L321.678,96.014z M321.678,94.971l-0.631,2.533l-1.301-0.737L321.678,94.971L321.678,94.971L321.678,94.971z"/>
					</g>
					<g>
						<polygon fill="#C5EDF9" points="321.463,95.834 321.678,94.971 321.019,95.583 						"/>
						<path fill="#1977CC" d="M322.208,94.072c-0.165-0.097-0.348-0.145-0.53-0.145c-0.258,0-0.513,0.095-0.71,0.279l-0.66,0.612
							c-0.243,0.227-0.364,0.556-0.324,0.887c0.038,0.33,0.231,0.622,0.521,0.786l0.442,0.251c0.16,0.089,0.337,0.135,0.516,0.135
							c0.141,0,0.279-0.028,0.412-0.085c0.3-0.129,0.521-0.39,0.601-0.707l0.215-0.864
							C322.802,94.774,322.605,94.306,322.208,94.072z M321.463,95.834l-0.444-0.251l0.659-0.612L321.463,95.834z M321.678,96.014
							L321.678,96.014L321.678,96.014z"/>
					</g>
				</g>
			</g>
			<g>
				<g>
					<path fill="#FFFFFF" d="M373.397,205.226l0.115,1.84c1.81,1.113,2.575-2.504,2.991-4.87l0.517-5.78l-3.155,0.377
						L373.397,205.226z"/>
					<path fill="#1977CC" d="M376.958,195.898l-3.154,0.377c-0.251,0.03-0.444,0.237-0.459,0.489l-0.469,8.432
						c0,0.021,0,0.041,0,0.062l0.117,1.841c0.01,0.169,0.102,0.322,0.246,0.412c0.345,0.211,0.654,0.284,0.919,0.284
						c0.233,0,0.432-0.057,0.587-0.126c1.264-0.567,1.839-2.921,2.272-5.381c0.003-0.015,0.005-0.03,0.006-0.044l0.517-5.78
						c0.015-0.157-0.044-0.312-0.156-0.421C377.271,195.933,377.115,195.88,376.958,195.898z M375.986,202.127
						c-0.489,2.768-1.051,4.311-1.668,4.588c-0.07,0.031-0.164,0.055-0.304,0.013l-0.096-1.506l0.443-7.963l2.081-0.249
						L375.986,202.127z"/>
				</g>
				<g>
					<path fill="#FFFFFF" d="M375.113,195.226c-0.343,0.326-0.653,0.726-0.852,0.896c-0.6,0.519-1.221,1.062-1.293,1.909
						l-0.508,6.092c-0.047,0.562,0.372,1.056,0.937,1.102c0.563,0.046,1.06-0.373,1.106-0.936l0.322-3.865l2.795-6.68l-0.955-0.353
						C376.666,193.392,375.581,194.781,375.113,195.226z"/>
					<path fill="#1977CC" d="M377.802,193.255l-0.954-0.353c-0.212-0.079-0.451-0.011-0.592,0.168
						c-0.295,0.378-1.141,1.434-1.503,1.778c-0.191,0.182-0.366,0.378-0.521,0.551c-0.122,0.138-0.239,0.268-0.311,0.329
						c-0.616,0.532-1.382,1.194-1.472,2.26l-0.509,6.092c-0.033,0.411,0.094,0.81,0.36,1.124c0.268,0.315,0.643,0.508,1.054,0.542
						c0.043,0.004,0.085,0.005,0.128,0.005c0.795,0,1.474-0.611,1.541-1.417l0.322-3.866c0.024-0.287-0.188-0.539-0.476-0.563
						c-0.286-0.023-0.539,0.189-0.563,0.477l-0.323,3.866c-0.022,0.275-0.268,0.481-0.544,0.458
						c-0.135-0.011-0.256-0.074-0.343-0.176c-0.085-0.102-0.127-0.23-0.116-0.363l0.508-6.092c0.055-0.642,0.57-1.086,1.115-1.558
						c0.121-0.104,0.253-0.251,0.404-0.422c0.143-0.157,0.303-0.337,0.464-0.491c0.356-0.338,1.016-1.149,1.369-1.591l0.6,0.221
						c0.269,0.1,0.57-0.038,0.67-0.308C378.21,193.655,378.072,193.355,377.802,193.255z"/>
				</g>
			</g>
			<g>
				<path fill="#C5EDF9" d="M368.682,135.297l-7.443-0.012l5.781,6.852l2.629,54.647l9.992-0.48l-2.629-54.647
					C376.879,138.897,374.48,135.51,368.682,135.297z"/>
				<path fill="#1977CC" d="M375.322,137.136c-1.588-1.443-3.879-2.26-6.622-2.36c-0.006,0-0.012,0-0.017,0l-7.445-0.011l0,0
					c-0.288,0-0.522,0.233-0.522,0.521c0,0.288,0.233,0.522,0.521,0.522l7.436,0.012c2.489,0.093,4.547,0.816,5.949,2.09
					c1.122,1.019,1.804,2.395,1.869,3.773l2.604,54.126l-8.949,0.43l-2.604-54.126c-0.014-0.288-0.26-0.51-0.547-0.496
					c-0.288,0.014-0.51,0.258-0.496,0.546l2.628,54.647c0.007,0.138,0.068,0.269,0.171,0.361c0.097,0.087,0.223,0.136,0.352,0.136
					c0.008,0,0.016,0,0.023,0l9.993-0.481c0.138-0.006,0.269-0.067,0.361-0.17c0.094-0.103,0.142-0.238,0.136-0.376l-2.629-54.647
					C377.453,139.979,376.647,138.339,375.322,137.136z"/>
			</g>
			<g>
				<path fill="#FFFFFF" d="M357.311,112.739L357.311,112.739c-4.05,0-7.332,3.282-7.332,7.331v15.227h14.663V120.07
					C364.642,116.021,361.36,112.739,357.311,112.739z"/>
				<path fill="#1977CC" d="M357.311,112.217c-4.33,0-7.854,3.523-7.854,7.853v15.227c0,0.288,0.234,0.521,0.521,0.521h14.663
					c0.288,0,0.522-0.233,0.522-0.521V120.07C365.164,115.74,361.641,112.217,357.311,112.217z M364.12,134.775H350.5V120.07
					c0-3.755,3.055-6.81,6.811-6.81c3.754,0,6.81,3.055,6.81,6.81V134.775z"/>
			</g>
			<g>
				<path fill="#1F8CED" d="M357.791,108.769h-11.422c0,0-0.699,6.9,6.901,6.9h0.218l0.456,12.163h10.697v-12.212
					C364.642,111.835,361.574,108.769,357.791,108.769z"/>
				<path fill="#1977CC" d="M357.791,108.247h-11.422c-0.269,0-0.492,0.202-0.52,0.469c-0.013,0.127-0.292,3.136,1.683,5.321
					c1.242,1.375,3.075,2.097,5.452,2.151l0.438,11.663c0.012,0.281,0.241,0.502,0.522,0.502h10.697
					c0.288,0,0.522-0.234,0.522-0.522v-12.212C365.164,111.554,361.855,108.247,357.791,108.247z M364.12,127.31h-9.675
					l-0.437-11.661c-0.01-0.28-0.241-0.502-0.521-0.502h-0.218c-2.205,0-3.872-0.606-4.958-1.803
					c-1.243-1.371-1.426-3.204-1.436-4.053h10.914c3.49,0,6.329,2.838,6.329,6.328V127.31z"/>
			</g>
			<g>
				<path fill="#FFFFFF" d="M353.506,124.678h-0.482v3.153h0.482c0.872,0,1.577-0.706,1.577-1.576
					C355.083,125.384,354.378,124.678,353.506,124.678z"/>
				<path fill="#1977CC" d="M353.506,124.156h-0.482c-0.289,0-0.521,0.233-0.521,0.521c0,0.289,0.232,0.522,0.521,0.522h0.482
					c0.582,0,1.056,0.473,1.056,1.055c0,0.581-0.474,1.055-1.056,1.055h-0.482c-0.289,0-0.521,0.233-0.521,0.521
					s0.232,0.522,0.521,0.522h0.482c1.157,0,2.099-0.941,2.099-2.098C355.604,125.098,354.663,124.156,353.506,124.156z"/>
			</g>
			<g>
				<path fill="#C5EDF9" d="M344.725,135.297c-3.813,0-6.905,3.092-6.905,6.905v43.504h36.309v-33.925l-6.905-16.484H344.725z"/>
				<path fill="#1977CC" d="M374.128,151.26c-0.288,0-0.522,0.233-0.522,0.521v33.403h-35.265v-42.983
					c0-3.52,2.863-6.383,6.384-6.383h22.498c0.288,0,0.521-0.233,0.521-0.521s-0.233-0.522-0.521-0.522h-22.498
					c-4.096,0-7.427,3.332-7.427,7.427v43.504c0,0.289,0.233,0.522,0.521,0.522h36.309c0.288,0,0.521-0.233,0.521-0.522v-33.925
					C374.649,151.493,374.416,151.26,374.128,151.26z"/>
			</g>
			<g>
				<polygon fill="#6EBDFF" points="364.105,258.004 373.202,258.004 373.202,185.706 359.682,185.706 				"/>
				<path fill="#1977CC" d="M373.202,185.185h-13.521c-0.143,0-0.281,0.059-0.38,0.164c-0.099,0.104-0.149,0.246-0.14,0.39
					l4.422,72.298c0.018,0.276,0.246,0.49,0.521,0.49h9.097c0.288,0,0.522-0.233,0.522-0.522v-72.298
					C373.725,185.418,373.49,185.185,373.202,185.185z M372.681,257.482h-8.085l-4.358-71.254h12.443V257.482z"/>
			</g>
			<g>
				<g>
					<polygon fill="#6EBDFF" points="339.771,258.004 348.87,258.004 353.293,185.706 339.771,185.706 					"/>
					<path fill="#1977CC" d="M353.293,185.185h-13.521c-0.287,0-0.521,0.233-0.521,0.521v72.298c0,0.288,0.234,0.522,0.521,0.522
						h9.099c0.276,0,0.503-0.214,0.521-0.49l4.422-72.298c0.009-0.144-0.042-0.285-0.141-0.39
						C353.573,185.244,353.438,185.185,353.293,185.185z M348.379,257.482h-8.084v-71.254h12.442L348.379,257.482z"/>
				</g>
			</g>
			<g>
				<polygon fill="#6EBDFF" points="349.904,193.515 360.225,193.515 364.105,258.004 373.202,258.004 373.202,185.706 
					344.71,185.706 				"/>
				<path fill="#1977CC" d="M373.202,185.185H344.71c-0.288,0-0.521,0.233-0.521,0.521c0,0.289,0.233,0.522,0.521,0.522h27.971
					v71.254h-8.084l-3.853-63.999c-0.015-0.276-0.244-0.491-0.52-0.491h-10.32c-0.288,0-0.521,0.234-0.521,0.522
					s0.233,0.521,0.521,0.521h9.829l3.851,63.999c0.018,0.276,0.244,0.49,0.521,0.49h9.097c0.288,0,0.522-0.233,0.522-0.522v-72.298
					C373.725,185.418,373.49,185.185,373.202,185.185z"/>
			</g>
			<g>
				<path fill="#A2DFFF" d="M364.105,258.004v4.99c0,1.128,0.93,2.042,2.076,2.042h4.959c1.132,0,2.049-0.902,2.049-2.015v-5.079
					h-8.911L364.105,258.004z"/>
				<path fill="#1977CC" d="M373.189,257.421h-8.911c-0.061,0-0.119,0.01-0.176,0.03l-0.173,0.062
					c-0.207,0.074-0.347,0.271-0.347,0.491v4.991c0,1.414,1.166,2.563,2.599,2.563h4.959c1.417,0,2.57-1.138,2.57-2.537v-5.079
					C373.711,257.654,373.479,257.421,373.189,257.421z M372.667,263.021c0,0.823-0.685,1.493-1.526,1.493h-4.959
					c-0.857,0-1.556-0.682-1.556-1.52v-4.53h8.041V263.021z"/>
			</g>
			<g>
				<path fill="#A2DFFF" d="M339.785,258.066v4.99c0,1.127,0.93,2.042,2.076,2.042h4.961c1.13,0,2.048-0.902,2.048-2.014v-5.08
					h-8.911L339.785,258.066z"/>
				<path fill="#1977CC" d="M348.87,257.482h-8.911c-0.061,0-0.119,0.01-0.176,0.031l-0.172,0.062
					c-0.208,0.074-0.348,0.271-0.348,0.492v4.99c0,1.414,1.166,2.564,2.598,2.564h4.961c1.416,0,2.568-1.138,2.568-2.537v-5.08
					C349.391,257.716,349.158,257.482,348.87,257.482z M348.348,263.083c0,0.823-0.685,1.493-1.525,1.493h-4.961
					c-0.856,0-1.555-0.682-1.555-1.52v-4.53h8.041V263.083z"/>
			</g>
			<g>
				<path fill="#C5EDF9" d="M310.838,135.562c-0.879,1.238-1.196,2.628-1.066,3.947c0.277,2.833,2.617,5.342,5.878,5.332
					l25.278-0.092l3.666-9.295L310.838,135.562L310.838,135.562z"/>
				<path fill="#1977CC" d="M344.594,134.932c-0.001,0-0.001,0-0.002,0l-33.756,0.108c-0.168,0-0.326,0.083-0.424,0.22
					c-0.909,1.282-1.311,2.769-1.16,4.301c0.324,3.312,3.064,5.802,6.379,5.802c0.007,0,0.014,0,0.02,0l25.277-0.092
					c0.289-0.001,0.521-0.236,0.521-0.523c-0.002-0.288-0.236-0.52-0.521-0.52c-0.002,0-0.002,0-0.002,0l-25.278,0.092
					c-0.007,0-0.013,0-0.019,0c-3.157,0-5.107-2.502-5.338-4.861c-0.117-1.191,0.168-2.353,0.825-3.375l33.479-0.108
					c0.288,0,0.521-0.235,0.52-0.523C345.114,135.164,344.881,134.932,344.594,134.932z"/>
			</g>
			<g>
				<polygon fill="#C5EDF9" points="309.664,113.403 309.771,139.509 320.687,137.019 318.044,113.403 				"/>
				<path fill="#1977CC" d="M318.562,113.345c-0.029-0.264-0.252-0.463-0.518-0.463h-8.38c-0.138,0-0.271,0.055-0.369,0.153
					c-0.098,0.099-0.152,0.231-0.152,0.371l0.107,26.106c0,0.287,0.233,0.52,0.521,0.52c0,0,0,0,0.002,0
					c0.288-0.002,0.52-0.236,0.52-0.524l-0.105-25.583h7.39l2.591,23.153c0.033,0.286,0.291,0.493,0.576,0.46
					c0.288-0.032,0.494-0.291,0.463-0.577L318.562,113.345z"/>
			</g>
		</g>
		<g>
			<g>
				<rect x="322.214" y="282.565" fill="#E0F4FC" width="21.352" height="19.177"/>
				<path fill="#1977CC" d="M343.565,282.043h-21.352c-0.288,0-0.521,0.234-0.521,0.522v19.177c0,0.288,0.233,0.522,0.521,0.522
					h21.352c0.288,0,0.522-0.234,0.522-0.522v-19.177C344.088,282.277,343.854,282.043,343.565,282.043z M343.045,301.221h-20.31
					v-18.134h20.31V301.221z"/>
			</g>
			<g>
				<rect x="343.565" y="282.565" fill="#A2DFFF" width="37.278" height="19.177"/>
				<path fill="#1977CC" d="M380.844,282.043h-37.278c-0.287,0-0.521,0.234-0.521,0.522v19.177c0,0.288,0.233,0.522,0.521,0.522
					h37.278c0.289,0,0.523-0.234,0.523-0.522v-19.177C381.367,282.277,381.133,282.043,380.844,282.043z M380.322,301.221h-36.234
					v-18.134h36.234V301.221z"/>
			</g>
		</g>
	</g>
	<g>
		<path fill="#1977CC" d="M446.654,301.202l-395.396,0c-0.299,0-0.542,0.242-0.542,0.542s0.243,0.542,0.542,0.542h395.396
			c0.3,0,0.543-0.243,0.543-0.542C447.197,301.444,446.954,301.202,446.654,301.202z"/>
	</g>
	<g>
		<g>
			<g>
				<rect x="203.192" y="282.875" fill="#A2DFFF" width="25.273" height="6.024"/>
				<path fill="#126FB5" d="M228.466,282.339h-25.273c-0.296,0-0.536,0.24-0.536,0.536v6.023c0,0.296,0.24,0.536,0.536,0.536h25.273
					c0.296,0,0.536-0.24,0.536-0.536v-6.023C229.001,282.579,228.762,282.339,228.466,282.339z M227.929,288.363h-24.201v-4.952
					h24.201V288.363z"/>
			</g>
			<g>
				<rect x="228.466" y="282.875" fill="#6EBDFF" width="25.645" height="6.024"/>
				<path fill="#126FB5" d="M254.11,282.339h-25.645c-0.296,0-0.537,0.24-0.537,0.536v6.023c0,0.296,0.24,0.536,0.537,0.536h25.645
					c0.297,0,0.536-0.24,0.536-0.536v-6.023C254.646,282.579,254.407,282.339,254.11,282.339z M253.574,288.363h-24.573v-4.952
					h24.573V288.363z"/>
			</g>
		</g>
		<g>
			<g>
				<rect x="189.754" y="288.899" fill="#6EBDFF" width="25.325" height="12.81"/>
				<path fill="#1977CC" d="M215.079,288.357h-25.325c-0.299,0-0.541,0.243-0.541,0.542v12.811c0,0.299,0.242,0.542,0.541,0.542
					h25.325c0.299,0,0.542-0.242,0.542-0.542v-12.811C215.62,288.6,215.378,288.357,215.079,288.357z M214.536,301.167h-24.24
					V289.44h24.24V301.167z"/>
			</g>
			<g>
				<rect x="215.079" y="288.899" fill="#47A3E2" width="44.212" height="12.81"/>
				<path fill="#1977CC" d="M259.291,288.357h-44.212c-0.299,0-0.542,0.243-0.542,0.542v12.811c0,0.299,0.243,0.542,0.542,0.542
					h44.212c0.3,0,0.542-0.242,0.542-0.542v-12.811C259.833,288.6,259.591,288.357,259.291,288.357z M258.75,301.167h-43.13V289.44
					h43.13V301.167z"/>
			</g>
		</g>
	</g>
	<g>
		<path fill="#A2DFFF" d="M427.914,312.137h-41.061c-0.288,0-0.522,0.233-0.522,0.521s0.234,0.521,0.522,0.521h41.061
			c0.288,0,0.521-0.233,0.521-0.521S428.202,312.137,427.914,312.137z"/>
		<path fill="#A2DFFF" d="M372.427,312.137h-14.982c-0.288,0-0.521,0.233-0.521,0.521s0.233,0.521,0.521,0.521h14.982
			c0.288,0,0.521-0.233,0.521-0.521S372.715,312.137,372.427,312.137z"/>
		<path fill="#A2DFFF" d="M341.908,312.137h-99.877c-0.289,0-0.522,0.233-0.522,0.521s0.233,0.521,0.522,0.521h99.877
			c0.288,0,0.522-0.233,0.522-0.521S342.196,312.137,341.908,312.137z"/>
		<path fill="#A2DFFF" d="M227.604,312.137l-154.342-0.001c-0.288,0-0.521,0.234-0.521,0.522s0.233,0.521,0.521,0.521h154.342
			c0.289,0,0.521-0.233,0.521-0.521S227.893,312.137,227.604,312.137z"/>
		<g>
			<path fill="#A2DFFF" d="M365.213,320.732h-46.054c-0.289,0-0.522,0.233-0.522,0.522c0,0.288,0.233,0.521,0.522,0.521h46.054
				c0.289,0,0.522-0.234,0.522-0.521C365.735,320.965,365.502,320.732,365.213,320.732z"/>
			<path fill="#A2DFFF" d="M301.957,320.732H186.543c-0.288,0-0.521,0.233-0.521,0.522c0,0.288,0.233,0.521,0.521,0.521h115.414
				c0.289,0,0.521-0.234,0.521-0.521C302.479,320.965,302.246,320.732,301.957,320.732z"/>
			<path fill="#A2DFFF" d="M172.671,320.732h-44.067c-0.288,0-0.521,0.233-0.521,0.521s0.233,0.522,0.521,0.522h44.067
				c0.288,0,0.521-0.234,0.521-0.521C173.192,320.965,172.959,320.732,172.671,320.732z"/>
		</g>
	</g>
	<g>
		<g>
			<path fill="#FFFFFF" d="M195.368,147.128l-8.113,2.338l0.335,3.159l6.16-0.659c0.575-0.062,5.282-4.276,5.184-5.193
				L195.368,147.128z"/>
			<path fill="#1977CC" d="M198.882,146.253l-3.564,0.355c-0.031,0.003-0.063,0.01-0.093,0.019l-8.114,2.337
				c-0.244,0.07-0.401,0.304-0.374,0.556l0.335,3.16c0.015,0.137,0.083,0.263,0.191,0.351c0.093,0.075,0.209,0.116,0.328,0.116
				c0.019,0,0.038-0.001,0.056-0.003l6.16-0.659c0.177-0.019,0.439-0.1,1.337-0.82c0.55-0.442,1.193-1.009,1.811-1.596
				c2.593-2.467,2.524-3.109,2.499-3.351C199.422,146.432,199.169,146.225,198.882,146.253z M196.227,149.319
				c-1.265,1.203-2.304,2.007-2.576,2.132l-5.597,0.599l-0.234-2.206l7.647-2.203l2.573-0.257
				C197.702,147.823,197.12,148.471,196.227,149.319z"/>
		</g>
		<g>
			<path fill="#FFFFFF" d="M147.185,130.154v6.215h3.167l1.456-8.343l-0.025-3.595C150.863,124.432,147.185,129.574,147.185,130.154
				z"/>
			<path fill="#1977CC" d="M151.783,123.91c-0.266,0-0.889,0-3.059,2.849c-0.483,0.635-2.061,2.755-2.061,3.395v6.215
				c0,0.288,0.233,0.522,0.522,0.522h3.167c0.253,0,0.47-0.183,0.514-0.433l1.457-8.343c0.005-0.031,0.008-0.062,0.008-0.093
				l-0.026-3.595C152.302,124.142,152.069,123.91,151.783,123.91z M147.7,130.219L147.7,130.219L147.7,130.219z M149.913,135.848
				h-2.207v-5.65c0.095-0.284,0.782-1.405,1.838-2.795c0.745-0.978,1.325-1.628,1.723-2.012l0.019,2.593L149.913,135.848z"/>
		</g>
		<g>
			<rect x="151.209" y="115.308" fill="#A2DFFF" width="72.651" height="32.814"/>
			<path fill="#1977CC" d="M223.86,114.786h-72.651c-0.288,0-0.521,0.234-0.521,0.522v32.814c0,0.288,0.233,0.521,0.521,0.521
				h72.651c0.289,0,0.522-0.233,0.522-0.521v-32.814C224.382,115.02,224.149,114.786,223.86,114.786z M223.339,147.601h-71.608
				V115.83h71.608V147.601z"/>
		</g>
		<g>
			<path fill="#FFFFFF" d="M151.808,128.026c-0.553-0.113-1.092,0.245-1.205,0.8l-0.774,3.812l-2.824,1.579l-2.773,1.747
				l2.045,2.995l0.902,0.465c0,0,1.238-1.254,1.754-1.642c0.378-0.284,0.731-0.646,0.948-0.792c0.655-0.445,1.334-0.912,1.504-1.747
				l1.221-6.008C152.718,128.681,152.361,128.14,151.808,128.026z"/>
			<path fill="#1977CC" d="M151.913,127.515c-0.404-0.083-0.815-0.003-1.159,0.225c-0.345,0.228-0.58,0.578-0.662,0.982
				l-0.774,3.812c-0.058,0.282,0.125,0.558,0.407,0.615c0.282,0.057,0.558-0.125,0.615-0.407l0.774-3.812
				c0.027-0.132,0.104-0.246,0.215-0.32s0.245-0.099,0.375-0.073c0.271,0.056,0.446,0.322,0.39,0.594l-1.22,6.008
				c-0.129,0.634-0.691,1.015-1.286,1.419c-0.132,0.09-0.28,0.221-0.451,0.372c-0.159,0.141-0.34,0.301-0.518,0.435
				c-0.391,0.294-1.138,1.021-1.54,1.42l-0.446-0.229l-1.666-2.439l2.316-1.459c0.244-0.153,0.316-0.475,0.163-0.719
				c-0.153-0.244-0.476-0.317-0.72-0.163l-2.774,1.748c-0.12,0.075-0.203,0.197-0.232,0.335c-0.029,0.139,0,0.283,0.08,0.4
				l2.044,2.994c0.049,0.072,0.115,0.13,0.192,0.17l0.903,0.465c0.075,0.039,0.157,0.059,0.239,0.059
				c0.136,0,0.271-0.054,0.371-0.155c0.337-0.342,1.299-1.293,1.696-1.591c0.211-0.159,0.408-0.333,0.582-0.488
				c0.138-0.122,0.269-0.237,0.346-0.29c0.672-0.457,1.509-1.024,1.723-2.074l1.22-6.008
				C153.287,128.504,152.746,127.686,151.913,127.515z"/>
		</g>
		<g>
			<path fill="#FFFFFF" d="M194.086,146.461l-5.825,1.855c-0.81,0.258-1.2,0.984-1.572,1.686c-0.123,0.231-0.443,0.623-0.685,1.03
				c-0.329,0.555-1.44,1.924-1.44,1.924l0.556,0.851l3.185,1.722l2.291-3.475l0.413-2.461l3.696-1.177
				c0.538-0.171,0.835-0.747,0.665-1.287C195.198,146.588,194.624,146.29,194.086,146.461z"/>
			<path fill="#1977CC" d="M195.104,146.064c-0.366-0.19-0.784-0.225-1.176-0.1l-5.826,1.855c-1.019,0.325-1.493,1.219-1.875,1.938
				c-0.044,0.083-0.145,0.225-0.251,0.376c-0.134,0.19-0.286,0.404-0.421,0.632c-0.254,0.429-1.095,1.489-1.397,1.861
				c-0.144,0.176-0.156,0.424-0.032,0.614l0.557,0.851c0.047,0.073,0.112,0.132,0.188,0.173l3.185,1.723
				c0.079,0.042,0.164,0.063,0.248,0.063c0.17,0,0.336-0.083,0.436-0.235l2.291-3.476c0.159-0.241,0.092-0.564-0.148-0.723
				c-0.24-0.159-0.564-0.092-0.723,0.149l-2.027,3.076l-2.648-1.432l-0.277-0.423c0.353-0.443,0.995-1.267,1.246-1.689
				c0.113-0.192,0.253-0.389,0.375-0.562c0.133-0.187,0.246-0.348,0.321-0.49c0.338-0.636,0.656-1.238,1.27-1.432l5.825-1.855
				c0.126-0.04,0.261-0.029,0.379,0.033s0.207,0.166,0.248,0.294c0.084,0.265-0.062,0.549-0.325,0.633l-3.696,1.177
				c-0.275,0.087-0.426,0.38-0.339,0.655c0.087,0.274,0.381,0.427,0.655,0.339l3.696-1.177c0.811-0.258,1.261-1.13,1.003-1.942
				C195.741,146.576,195.471,146.254,195.104,146.064z"/>
		</g>
		<g>
			<polygon fill="#E0F4FC" points="145.645,133.242 132.09,157.36 132.073,182.296 144.051,181.603 141.267,158.127 
				152.738,135.621 			"/>
			<path fill="#1977CC" d="M152.904,135.127l-7.094-2.379c-0.237-0.08-0.498,0.021-0.621,0.239l-13.555,24.118
				c-0.043,0.078-0.067,0.166-0.067,0.255l-0.017,24.937c0,0.288,0.233,0.522,0.521,0.522c0,0,0,0,0.001,0
				c0.287,0,0.521-0.233,0.521-0.521l0.017-24.8l13.276-23.623l6.111,2.049l-11.197,21.967c-0.047,0.092-0.066,0.195-0.053,0.299
				l2.784,23.475c0.034,0.286,0.293,0.492,0.58,0.457c0.286-0.034,0.49-0.293,0.457-0.58l-2.766-23.318l11.399-22.366
				c0.069-0.134,0.076-0.293,0.019-0.434C153.164,135.283,153.049,135.175,152.904,135.127z"/>
		</g>
		<g>
			<rect x="141.694" y="168.996" fill="#FFFFFF" width="7.882" height="6.88"/>
			<path fill="#1977CC" d="M149.576,168.474h-7.882c-0.288,0-0.521,0.234-0.521,0.522v6.88c0,0.288,0.233,0.522,0.521,0.522h7.882
				c0.288,0,0.521-0.234,0.521-0.522v-6.88C150.098,168.708,149.864,168.474,149.576,168.474z M149.055,175.354h-6.839v-5.837h6.839
				V175.354z"/>
		</g>
		<g>
			<path fill="#FFFFFF" d="M153.551,152.917v1.342c0-2.834-1.292-3.267-4.116-3.267h-0.686c-3.654,0-7.074,1.804-9.146,4.824l0,0
				c-1.224,1.784-1.879,3.897-1.879,6.062v2.118c0,4.662,3.767,8.44,8.413,8.44l0,0c4.646,0,8.656-2.064,8.465-7.579
				L153.551,152.917z"/>
			<path fill="#1977CC" d="M155.123,164.811l-1.051-11.94c-0.016-0.168-0.109-0.312-0.243-0.396c-0.199-0.59-0.523-1.029-0.98-1.342
				c-0.803-0.549-1.945-0.662-3.412-0.662h-0.686c-3.827,0-7.407,1.888-9.577,5.05c-1.288,1.878-1.97,4.077-1.97,6.356v2.118
				c0,4.942,4.008,8.962,8.935,8.962c3.071,0,5.521-0.854,7.081-2.47c1.347-1.393,1.987-3.294,1.905-5.648
				C155.124,164.83,155.124,164.82,155.123,164.811z M152.469,169.763c-0.949,0.981-2.816,2.152-6.331,2.152
				c-4.352,0-7.892-3.552-7.892-7.919v-2.118c0-2.068,0.618-4.062,1.787-5.766c1.976-2.879,5.234-4.597,8.717-4.597h0.686
				c2.741,0,3.594,0.379,3.594,2.745c0,0.143,0.056,0.271,0.148,0.365l0.904,10.265C154.15,166.943,153.607,168.583,152.469,169.763
				z"/>
		</g>
		<g>
			<g>
				<path fill="#6EBDFF" d="M147.063,234.93l4.589,27.494c0,0-1.718,4.591-1.718,10.154c0,5.562,0.688,21.798,0.688,21.798h9.416
					l1.938-31.697l-1.938-34.453L147.063,234.93z"/>
				<path fill="#1977CC" d="M160.011,227.706c-0.288,0.016-0.508,0.262-0.492,0.55l1.936,34.422l-1.905,31.177h-8.426
					c-0.115-2.777-0.667-16.337-0.667-21.277c0-5.396,1.668-9.927,1.685-9.972c0.032-0.086,0.042-0.178,0.026-0.269l-4.589-27.493
					c-0.047-0.284-0.316-0.476-0.601-0.429c-0.284,0.047-0.477,0.316-0.429,0.601l4.566,27.358
					c-0.288,0.814-1.703,5.07-1.703,10.204c0,5.51,0.681,21.658,0.689,21.82c0.011,0.28,0.242,0.5,0.521,0.5h9.416
					c0.276,0,0.504-0.214,0.521-0.49l1.937-31.697c0.001-0.02,0.001-0.041,0-0.062l-1.937-34.452
					C160.544,227.91,160.298,227.69,160.011,227.706z"/>
			</g>
		</g>
		<g>
			<path fill="#A2DFFF" d="M140.752,299.082l-9.078-4.706h-9.072v5.274c0,1.156,0.934,2.092,2.086,2.092h15.361
				C141.506,301.743,142.018,299.805,140.752,299.082z"/>
			<path fill="#1977CC" d="M141.011,298.628c-0.006-0.004-0.013-0.006-0.019-0.01l-9.077-4.706c-0.074-0.039-0.157-0.058-0.24-0.058
				h-9.072c-0.288,0-0.521,0.233-0.521,0.521v5.274c0,1.441,1.169,2.614,2.607,2.614h15.361c0.892,0,1.646-0.581,1.875-1.445
				C142.155,299.953,141.788,299.072,141.011,298.628z M140.917,300.552c-0.086,0.324-0.359,0.669-0.867,0.669h-15.361
				c-0.862,0-1.564-0.705-1.564-1.571v-4.753h8.423l8.955,4.642C140.938,299.793,141.003,300.228,140.917,300.552z"/>
		</g>
		<g>
			<path fill="#A2DFFF" d="M168.772,299.082l-9.078-4.706h-9.071v5.274c0,1.156,0.934,2.092,2.085,2.092h15.361
				C169.526,301.743,170.038,299.805,168.772,299.082z"/>
			<path fill="#1977CC" d="M169.031,298.628c-0.007-0.004-0.013-0.006-0.02-0.01l-9.077-4.706c-0.074-0.039-0.156-0.058-0.24-0.058
				h-9.071c-0.289,0-0.521,0.233-0.521,0.521v5.274c0,1.442,1.169,2.614,2.606,2.614h15.361c0.893,0,1.646-0.581,1.876-1.445
				C170.175,299.953,169.808,299.072,169.031,298.628z M168.937,300.552c-0.086,0.324-0.359,0.669-0.867,0.669h-15.361
				c-0.862,0-1.563-0.705-1.563-1.571v-4.753h8.423l8.954,4.642C168.958,299.793,169.022,300.228,168.937,300.552z"/>
		</g>
		<g>
			<path fill="#E0F4FC" d="M154.476,175.876H136.97c-3.548,0-6.424,2.886-6.424,6.445l2.053,24.016l-2.053,21.89h29.493
				l0.861-45.905C160.9,178.762,158.024,175.876,154.476,175.876z"/>
			<path fill="#1977CC" d="M154.476,175.354H136.97c-3.83,0-6.946,3.125-6.946,6.967c0,0.014,0.001,0.029,0.002,0.044l2.05,23.97
				l-2.049,21.843c-0.013,0.146,0.035,0.291,0.134,0.4c0.099,0.109,0.239,0.17,0.386,0.17h29.493c0.284,0,0.517-0.227,0.521-0.512
				l0.861-45.906c0-0.003,0-0.007,0-0.009C161.422,178.479,158.306,175.354,154.476,175.354z M159.527,227.705H131.12l2-21.319
				c0.003-0.031,0.003-0.062,0-0.093l-2.051-23.994c0.012-3.256,2.654-5.9,5.902-5.9h17.506c3.253,0,5.899,2.654,5.902,5.918
				L159.527,227.705z"/>
		</g>
		<g>
			<path fill="#6EBDFF" d="M130.546,228.227v8.621l0.268,25.245c0,0-3.986,4.856-4.588,10.486
				c-0.765,7.161-3.624,21.798-3.624,21.798h9.417l8.413-30.42l3.547-27.62h3.278l12.781-8.109h-15.498H130.546z"/>
			<path fill="#1977CC" d="M160.039,227.705h-29.493c-0.288,0-0.522,0.233-0.522,0.521v8.626l0.267,25.059
				c-0.692,0.884-4.025,5.379-4.584,10.61c-0.753,7.056-3.588,21.608-3.617,21.754c-0.03,0.153,0.01,0.311,0.109,0.432
				c0.099,0.12,0.247,0.189,0.403,0.189h9.417c0.234,0,0.44-0.156,0.503-0.382l8.413-30.42c0.006-0.024,0.011-0.048,0.014-0.073
				l3.489-27.165h2.819c0.288,0,0.521-0.234,0.521-0.522c0-0.288-0.233-0.521-0.521-0.521h-3.278c-0.262,0-0.483,0.195-0.517,0.455
				l-3.543,27.583l-8.297,30.002h-8.387c0.551-2.872,2.841-14.96,3.51-21.221c0.577-5.402,4.435-10.164,4.473-10.211
				c0.078-0.095,0.12-0.214,0.119-0.336l-0.269-25.239v-8.099h28.971c0.289,0,0.521-0.233,0.521-0.521
				C160.561,227.938,160.328,227.705,160.039,227.705z"/>
		</g>
		<g>
			<path fill="#6EBDFF" d="M150.635,148.217c-2.358-0.896-5.353,1.087-5.353,1.087s-9.814-4.54-13.32,6.841
				c-1.861,6.044,2.422,16.688,2.422,16.688h16.315c0,0-0.956-6.65,0.765-12.852C152.027,157.951,158.233,151.102,150.635,148.217z"
				/>
			<path fill="#1977CC" d="M150.821,147.729c-2.197-0.834-4.784,0.518-5.583,0.99c-0.998-0.399-4.603-1.622-8.088-0.067
				c-2.634,1.174-4.547,3.644-5.685,7.34c-0.801,2.599-0.631,6.262,0.505,10.889c0.837,3.414,1.887,6.038,1.932,6.148
				c0.079,0.197,0.271,0.327,0.483,0.327h16.315c0.151,0,0.295-0.065,0.395-0.18c0.099-0.114,0.144-0.266,0.122-0.416
				c-0.01-0.065-0.921-6.611,0.751-12.638c0.096-0.347,0.432-0.938,0.819-1.623c1.104-1.95,2.772-4.896,1.853-7.442
				C154.118,149.612,152.833,148.494,150.821,147.729z M151.878,157.983c-0.439,0.776-0.786,1.388-0.917,1.859l0.503,0.14
				l-0.503-0.14c-1.451,5.23-1.043,10.684-0.851,12.469h-15.369c-0.688-1.82-3.889-10.792-2.281-16.012
				c1.045-3.393,2.762-5.644,5.104-6.692c3.571-1.597,7.459,0.153,7.498,0.17c0.164,0.076,0.355,0.062,0.506-0.039
				c0.028-0.018,2.796-1.825,4.88-1.034c1.716,0.651,2.795,1.561,3.208,2.705C154.414,153.505,152.888,156.2,151.878,157.983z"/>
		</g>
		<g>
			<path fill="#FFFFFF" d="M149.74,162.746L149.74,162.746c0,1.001,0.81,1.814,1.81,1.814h0.555v-3.63h-0.555
				C150.55,160.931,149.74,161.744,149.74,162.746z"/>
			<path fill="#1977CC" d="M151.55,161.453h0.555c0.288,0,0.521-0.234,0.521-0.522c0-0.289-0.233-0.521-0.521-0.521h-0.555
				c-1.286,0-2.331,1.048-2.331,2.337c0,1.288,1.045,2.336,2.331,2.336h0.555c0.288,0,0.521-0.233,0.521-0.521
				c0-0.288-0.233-0.521-0.521-0.521h-0.555c-0.71,0-1.288-0.58-1.288-1.293C150.262,162.033,150.839,161.453,151.55,161.453z"/>
		</g>
		<g>
			<path fill="#E0F4FC" d="M174.434,171.994l-19.958,3.882l4.189,11.28l20.384-6.968c2.411-0.728,3.846-2.754,4.088-4.925
				l7.457-21.867l-7.457-1.151L174.434,171.994z"/>
			<path fill="#1977CC" d="M190.674,152.881l-7.457-1.151c-0.234-0.036-0.462,0.089-0.557,0.305l-8.595,19.5l-19.689,3.83
				c-0.283,0.055-0.468,0.329-0.413,0.612c0.056,0.283,0.329,0.467,0.612,0.413l19.958-3.882c0.167-0.033,0.309-0.146,0.377-0.302
				l8.543-19.382l6.445,0.995l-7.255,21.278c-0.013,0.036-0.021,0.073-0.025,0.11c-0.24,2.146-1.666,3.864-3.721,4.484
				c-0.005,0.002-0.012,0.004-0.018,0.006l-20.384,6.967c-0.273,0.093-0.418,0.39-0.325,0.663c0.074,0.217,0.276,0.354,0.494,0.354
				c0.056,0,0.113-0.01,0.168-0.029l20.376-6.964c2.438-0.74,4.134-2.769,4.44-5.306l7.438-21.814
				c0.05-0.146,0.032-0.307-0.048-0.438S190.827,152.904,190.674,152.881z"/>
		</g>
	</g>
	<g>
		<g>
			<path fill="#FFFFFF" d="M362.467,190.31c-1.922-0.517-4.613,1.512-5.7,3.553c-0.371,0.697,0.248,1.514,1.025,1.373l1.827-0.333
				l8.916,0.04l-2.152-3.756L362.467,190.31z"/>
			<path fill="#1977CC" d="M366.835,190.926c-0.073-0.127-0.196-0.217-0.339-0.25l-3.906-0.873c-1.033-0.274-2.303,0.042-3.575,0.89
				c-1.116,0.742-2.128,1.835-2.709,2.925c-0.263,0.495-0.219,1.086,0.114,1.542c0.284,0.391,0.727,0.613,1.195,0.613
				c0.09,0,0.18-0.008,0.27-0.024l1.781-0.325l8.867,0.04h0.002c0.187,0,0.357-0.099,0.452-0.259
				c0.093-0.162,0.095-0.361,0.001-0.522L366.835,190.926z M359.622,194.38c-0.034,0.001-0.064,0.003-0.096,0.009l-1.828,0.333
				c-0.252,0.046-0.397-0.124-0.437-0.177c-0.047-0.063-0.143-0.233-0.035-0.437c0.889-1.666,3.002-3.358,4.599-3.358
				c0.175,0,0.345,0.021,0.505,0.064c0.008,0.002,0.015,0.004,0.022,0.005l3.69,0.825l1.59,2.771L359.622,194.38z"/>
		</g>
		<g>
			<path fill="#FFFFFF" d="M366.383,191.186l-1.003,1.722l-3.777-0.886c-0.549-0.129-1.101,0.213-1.23,0.764l0,0
				c-0.131,0.551,0.21,1.102,0.759,1.23l5.951,1.397c0.827,0.194,1.536-0.23,2.215-0.641c0.223-0.135,3.75,2.554,4.165,2.329
				c0.568-0.308-1.98-4.536-1.98-4.536L366.383,191.186z"/>
			<path fill="#1977CC" d="M371.928,192.295c-0.069-0.115-0.181-0.199-0.311-0.234l-5.099-1.379
				c-0.279-0.075-0.565,0.089-0.641,0.367s0.089,0.564,0.368,0.639l4.896,1.325c0.701,1.179,1.41,2.528,1.72,3.312
				c-0.501-0.288-1.192-0.742-1.67-1.056c-1.514-0.994-1.786-1.172-2.164-0.944c-0.616,0.374-1.199,0.725-1.825,0.579l-5.952-1.396
				c-0.129-0.03-0.24-0.109-0.31-0.222c-0.07-0.114-0.091-0.25-0.061-0.38c0.063-0.271,0.335-0.439,0.604-0.376l3.775,0.886
				c0.28,0.066,0.562-0.108,0.628-0.389c0.065-0.28-0.109-0.561-0.39-0.626l-3.776-0.887c-0.827-0.194-1.662,0.322-1.856,1.151
				c-0.098,0.403-0.029,0.818,0.188,1.169c0.217,0.351,0.557,0.596,0.958,0.69l5.951,1.396c0.939,0.22,1.736-0.185,2.395-0.576
				c0.282,0.155,0.836,0.519,1.262,0.799c1.639,1.075,2.336,1.495,2.785,1.495c0.114,0,0.213-0.027,0.306-0.078
				c0.16-0.086,0.276-0.236,0.326-0.421c0.092-0.334,0.034-0.913-0.995-2.866C372.503,193.251,371.951,192.334,371.928,192.295z"/>
		</g>
		<g>
			<polygon fill="#C5EDF9" points="367.121,194.761 375.25,193.363 368.065,191.423 			"/>
			<path fill="#1977CC" d="M375.386,192.858l-7.184-1.938c-0.275-0.075-0.56,0.086-0.639,0.361l-0.944,3.337
				c-0.08,0.278,0.082,0.565,0.358,0.644c0.048,0.014,0.096,0.02,0.144,0.02c0.228,0,0.437-0.15,0.502-0.379l0.805-2.842
				l6.686,1.805c0.279,0.076,0.564-0.089,0.641-0.367C375.828,193.221,375.664,192.934,375.386,192.858z"/>
		</g>
		<g>
			<path fill="#C5EDF9" d="M388.935,197.058l-20.869-5.635l-1.773,6.261l21.345,9.288c2.146,0.935,4.649,0.389,6.212-1.354
				l14.6-16.282l-8.14-9.182L388.935,197.058z"/>
			<path fill="#1977CC" d="M408.797,188.947c-0.215-0.192-0.545-0.174-0.736,0.041l-14.601,16.281
				c-1.415,1.578-3.672,2.07-5.615,1.225l-20.927-9.106l1.51-5.327l20.371,5.5c0.217,0.058,0.445-0.027,0.57-0.212l11.373-16.904
				c0.161-0.239,0.098-0.563-0.142-0.724c-0.239-0.161-0.563-0.097-0.724,0.142l-11.166,16.594l-20.509-5.537
				c-0.275-0.075-0.56,0.086-0.639,0.361l-1.773,6.26c-0.071,0.251,0.054,0.517,0.294,0.621l21.344,9.288
				c0.77,0.334,1.578,0.497,2.378,0.497c1.656,0,3.274-0.691,4.431-1.981l14.601-16.281
				C409.028,189.47,409.012,189.14,408.797,188.947z"/>
		</g>
		<g>
			<rect x="408.859" y="169.855" fill="#FFFFFF" width="8.727" height="7.592"/>
			<path fill="#1977CC" d="M417.586,169.333h-8.727c-0.288,0-0.521,0.233-0.521,0.522v7.592c0,0.288,0.233,0.522,0.521,0.522h8.727
				c0.288,0,0.521-0.234,0.521-0.522v-7.592C418.107,169.566,417.874,169.333,417.586,169.333z M417.064,176.926h-7.684v-6.549
				h7.684V176.926z"/>
		</g>
		<g>
			<g>
				<g>
					<path fill="#6EBDFF" d="M413.029,144.716c0.026,0,0.053,0.001,0.08,0.001c0.038,0,0.076-0.001,0.114-0.001H413.029z"/>
					<path fill="#6EBDFF" d="M413.469,144.724c-0.119-0.004-0.238-0.005-0.359-0.006c-6.986,0.058-9.703,5.367-9.703,12.399
						l1.293,11.657h16.5c1.293,0,2.42-0.879,2.736-2.133l1.357-5.387C428.088,153.44,421.763,145.004,413.469,144.724z"/>
					<path fill="#1977CC" d="M413.487,144.203c-0.072-0.002-0.144-0.004-0.216-0.005c-0.017-0.002-0.031-0.002-0.048-0.002h-0.194
						c-0.016,0-0.032,0-0.047,0.002c-6.514,0.11-10.098,4.688-10.098,12.92c0,0.02,0.001,0.039,0.004,0.058l1.292,11.656
						c0.03,0.264,0.253,0.464,0.519,0.464h16.5c1.533,0,2.867-1.039,3.242-2.527l1.351-5.363c1.315-3.7,0.74-7.776-1.578-11.188
						C421.753,146.594,417.743,144.346,413.487,144.203z M424.802,161.078c-0.006,0.016-0.012,0.032-0.015,0.048l-1.357,5.387
						c-0.258,1.024-1.175,1.739-2.23,1.739h-16.032l-1.239-11.163c0.004-3.637,0.732-6.503,2.162-8.522
						c1.548-2.186,3.914-3.305,7.034-3.329c0.11,0.001,0.22,0.003,0.327,0.007c3.925,0.132,7.624,2.21,9.9,5.558
						C425.485,153.944,426.014,157.689,424.802,161.078z"/>
				</g>
				<g>
					<path fill="#FFFFFF" d="M409.016,149.985c-3.129,0-5.664,2.536-5.664,5.664l0,0v8.687c0,5.145,2.874,9.315,8.019,9.315l0,0
						c5.145,0,10.612-4.17,10.612-9.315v-6.006l-0.605-8.345H409.016z"/>
					<path fill="#1977CC" d="M421.982,157.809c-0.289,0-0.522,0.233-0.522,0.521v6.006c0,2.265-1.133,4.462-3.19,6.188
						c-1.975,1.656-4.489,2.606-6.899,2.606c-2.28,0-4.193-0.877-5.532-2.535c-1.267-1.568-1.964-3.791-1.964-6.259v-8.687
						c0-2.835,2.306-5.142,5.142-5.142h12.361c0.287,0,0.52-0.234,0.52-0.522s-0.232-0.521-0.52-0.521h-12.361
						c-3.411,0-6.186,2.774-6.186,6.186v8.687c0,2.706,0.779,5.162,2.195,6.915c1.544,1.911,3.738,2.922,6.345,2.922
						c2.651,0,5.411-1.039,7.57-2.851c2.297-1.927,3.563-4.409,3.563-6.987v-6.006C422.504,158.042,422.27,157.809,421.982,157.809z
						"/>
				</g>
				<g>
					<g>
						<path fill="#FFFFFF" d="M420.742,160.953h-0.615v4.006h0.615c1.105,0,2.002-0.896,2.002-2.003l0,0
							C422.744,161.85,421.848,160.953,420.742,160.953z"/>
						<path fill="#1977CC" d="M420.742,160.432h-0.615c-0.288,0-0.521,0.233-0.521,0.521c0,0.289,0.233,0.521,0.521,0.521h0.615
							c0.815,0,1.48,0.665,1.48,1.482c0,0.816-0.665,1.481-1.48,1.481h-0.615c-0.288,0-0.521,0.233-0.521,0.521
							s0.233,0.522,0.521,0.522h0.615c1.392,0,2.523-1.133,2.523-2.525S422.134,160.432,420.742,160.432z"/>
					</g>
				</g>
				<g>
					<path fill="#6EBDFF" d="M414.07,144.716h-11.075c0,0-0.851,8.386,8.385,8.386h4.4c1.513,0,3.003,0.455,4.217,1.356
						c1.097,0.815,2.069,2.056,1.985,3.871l3.173-5.089C424.161,148.46,418.668,144.716,414.07,144.716z"/>
					<path fill="#1977CC" d="M421.275,146.767c-2.209-1.635-4.836-2.572-7.205-2.572h-11.075c-0.268,0-0.493,0.203-0.519,0.469
						c-0.017,0.152-0.352,3.761,2.015,6.38c1.548,1.712,3.865,2.58,6.889,2.58h4.4c1.431,0,2.817,0.445,3.906,1.253
						c1.24,0.923,1.838,2.076,1.773,3.428c-0.013,0.288,0.209,0.532,0.497,0.546c0.008,0,0.018,0,0.025,0
						c0.277,0,0.507-0.218,0.52-0.498c0.08-1.696-0.679-3.188-2.193-4.313c-1.268-0.941-2.875-1.46-4.528-1.46h-4.4
						c-2.711,0-4.767-0.751-6.107-2.23c-1.593-1.757-1.775-4.121-1.775-5.113h10.573c2.151,0,4.551,0.863,6.584,2.367
						c2.131,1.578,3.549,3.617,3.99,5.742c0.06,0.282,0.334,0.463,0.618,0.405c0.282-0.059,0.462-0.335,0.403-0.617
						C425.173,150.757,423.612,148.497,421.275,146.767z"/>
				</g>
			</g>
		</g>
		<g>
			<g>
				<path fill="#A2DFFF" d="M390.151,299.065c-1.058,0.728-0.631,2.677,0.586,2.677h16.05c0.963,0,1.742-0.942,1.742-2.104v-5.307
					h-7.577L390.151,299.065z"/>
				<path fill="#1977CC" d="M408.529,293.811h-7.577c-0.073,0-0.145,0.014-0.21,0.043l-10.801,4.734
					c-0.029,0.013-0.059,0.029-0.086,0.048c-0.704,0.484-1.001,1.447-0.723,2.34c0.246,0.795,0.861,1.289,1.604,1.289h16.05
					c1.248,0,2.264-1.178,2.264-2.626v-5.307C409.051,294.043,408.817,293.811,408.529,293.811z M408.008,299.639
					c0,0.873-0.549,1.583-1.221,1.583h-16.05c-0.405,0-0.568-0.425-0.61-0.555c-0.112-0.366-0.069-0.873,0.285-1.146l10.648-4.667
					h6.947V299.639z"/>
			</g>
			<g>
				<polygon fill="#C5EDF9" points="419.287,294.332 428.791,294.332 428.791,227.786 414.667,227.786 				"/>
				<path fill="#1977CC" d="M428.791,227.264h-14.124c-0.145,0-0.282,0.06-0.382,0.166c-0.098,0.105-0.149,0.248-0.139,0.392
					l4.621,66.546c0.019,0.273,0.246,0.485,0.52,0.485h9.504c0.288,0,0.521-0.233,0.521-0.521v-66.546
					C429.312,227.498,429.079,227.264,428.791,227.264z M428.27,293.811h-8.495l-4.548-65.502h13.043V293.811z"/>
			</g>
			<g>
				<g>
					<polygon fill="#6EBDFF" points="399.335,294.332 408.529,294.332 413.149,227.786 399.024,227.786 					"/>
					<path fill="#1977CC" d="M413.149,227.264h-14.125c-0.138,0-0.271,0.056-0.369,0.154c-0.099,0.098-0.153,0.232-0.152,0.371
						l0.311,66.546c0.001,0.287,0.235,0.519,0.521,0.519h9.194c0.273,0,0.501-0.212,0.521-0.485l4.62-66.546
						c0.01-0.144-0.04-0.286-0.139-0.392C413.433,227.324,413.293,227.264,413.149,227.264z M408.042,293.811h-8.187l-0.306-65.502
						h13.04L408.042,293.811z"/>
				</g>
			</g>
			<g>
				<polygon fill="#6EBDFF" points="408.999,235.944 415.233,235.944 419.287,294.332 428.791,294.332 428.791,227.786 
					399.024,227.786 				"/>
				<path fill="#1977CC" d="M428.791,227.264h-29.767c-0.288,0-0.521,0.234-0.521,0.522s0.233,0.522,0.521,0.522h29.245v65.502
					h-8.495l-4.021-57.903c-0.019-0.273-0.246-0.485-0.521-0.485h-6.234c-0.289,0-0.522,0.233-0.522,0.522
					c0,0.288,0.233,0.521,0.522,0.521h5.748l4.021,57.902c0.019,0.273,0.246,0.485,0.52,0.485h9.504
					c0.288,0,0.521-0.233,0.521-0.521v-66.546C429.312,227.498,429.079,227.264,428.791,227.264z"/>
			</g>
			<g>
				<path fill="#A2DFFF" d="M411.031,299.065c-1.021,0.728-0.609,2.677,0.567,2.677h15.511c0.929,0,1.682-0.942,1.682-2.104v-5.307
					h-7.322L411.031,299.065z"/>
				<path fill="#1977CC" d="M428.791,293.811h-7.322c-0.074,0-0.147,0.015-0.215,0.046l-10.438,4.734
					c-0.03,0.014-0.06,0.031-0.086,0.05c-0.694,0.494-0.978,1.468-0.69,2.369c0.248,0.773,0.846,1.255,1.56,1.255h15.511
					c1.215,0,2.203-1.178,2.203-2.626v-5.307C429.312,294.043,429.079,293.811,428.791,293.811z M428.27,299.639
					c0,0.858-0.531,1.583-1.16,1.583h-15.511c-0.367,0-0.525-0.405-0.565-0.53c-0.123-0.386-0.069-0.905,0.266-1.174l10.283-4.664
					h6.688V299.639z"/>
			</g>
		</g>
		<g>
			<path fill="#C5EDF9" d="M422.42,176.411h-15.851c-4.658,0-7.722,3.777-7.722,8.437l0.177,42.939h13.816h18.014v-42.939
				C430.854,180.188,427.078,176.411,422.42,176.411z"/>
			<path fill="#1977CC" d="M422.42,175.889h-15.851c-2.36,0-4.489,0.94-5.999,2.647c-1.447,1.639-2.244,3.88-2.244,6.313
				l0.177,42.938c0.001,0.288,0.235,0.52,0.521,0.52h31.83c0.288,0,0.522-0.234,0.522-0.522v-42.939
				C431.377,179.907,427.358,175.889,422.42,175.889z M430.333,227.264h-30.788l-0.175-42.417c0-4.586,3.027-7.915,7.199-7.915
				h15.851c4.363,0,7.913,3.55,7.913,7.915V227.264z"/>
		</g>
		<path fill="#1977CC" d="M412.526,167.669c-0.709,0.423-1.46,0.638-2.233,0.638h-0.232c-0.686,0-1.357-0.17-1.996-0.505
			c-0.256-0.133-0.57-0.035-0.704,0.22c-0.134,0.256-0.035,0.571,0.22,0.704c0.791,0.415,1.625,0.624,2.48,0.624h0.232
			c0.965,0,1.896-0.264,2.769-0.785c0.247-0.148,0.328-0.468,0.181-0.715C413.094,167.603,412.773,167.522,412.526,167.669z"/>
		<g>
			<path fill="#0868AF" d="M414.894,159.709L414.894,159.709c-0.475,0-0.862,0.387-0.862,0.861l0,0c0,0.474,0.388,0.861,0.862,0.861
				l0,0c0.473,0,0.86-0.387,0.86-0.861l0,0C415.754,160.096,415.366,159.709,414.894,159.709z"/>
			<path fill="#0868AF" d="M405.461,159.709c-0.474,0-0.861,0.387-0.861,0.861l0,0c0,0.474,0.388,0.861,0.861,0.861
				c0.473,0,0.86-0.387,0.86-0.861l0,0C406.321,160.096,405.934,159.709,405.461,159.709z"/>
		</g>
		<path fill="#1977CC" d="M411.201,164.149c-0.288,0-0.521,0.234-0.521,0.522c0,0.425-0.347,0.771-0.771,0.771
			c-0.425,0-0.771-0.346-0.771-0.771v-6.33c0-0.288-0.234-0.521-0.521-0.521s-0.521,0.234-0.521,0.521v6.33
			c0,1,0.812,1.813,1.813,1.813c1,0,1.813-0.813,1.813-1.813C411.723,164.383,411.489,164.149,411.201,164.149z"/>
		<g>
			<path fill="#C5EDF9" d="M416.137,156.573h-3.136c-0.288,0-0.522,0.234-0.522,0.521c0,0.288,0.234,0.522,0.522,0.522h3.136
				c0.289,0,0.522-0.234,0.522-0.522C416.659,156.807,416.426,156.573,416.137,156.573z"/>
			<path fill="#C5EDF9" d="M407.057,156.573h-2.295c-0.289,0-0.522,0.234-0.522,0.521c0,0.288,0.233,0.522,0.522,0.522h2.295
				c0.289,0,0.521-0.234,0.521-0.522C407.578,156.807,407.346,156.573,407.057,156.573z"/>
		</g>
		<g>
			<circle fill="#C5EDF9" cx="415.458" cy="164.714" r="1.199"/>
			<circle fill="#C5EDF9" cx="405.735" cy="164.714" r="1.199"/>
		</g>
		<g>
			<path fill="#FFFFFF" d="M383.201,215.753l-3.112,0.792c-0.419,2.072,3.653,4.775,6.149,4.172l7.135-1.854l-1.258-2.917
				L383.201,215.753z"/>
			<path fill="#1977CC" d="M392.595,215.739c-0.08-0.188-0.265-0.312-0.468-0.315l-8.914-0.192
				c-0.047-0.001-0.094,0.004-0.141,0.016l-3.112,0.792c-0.193,0.05-0.343,0.206-0.383,0.403c-0.181,0.897,0.255,1.907,1.226,2.842
				c1.119,1.077,3.01,2.04,4.68,2.04c0.302,0,0.597-0.031,0.878-0.099c0.003-0.001,0.007-0.001,0.009-0.002l7.135-1.855
				c0.147-0.038,0.271-0.138,0.338-0.275c0.067-0.137,0.07-0.296,0.011-0.435L392.595,215.739z M386.111,220.212
				c-1.119,0.268-3.139-0.287-4.585-1.68c-0.565-0.545-0.896-1.102-0.941-1.575l2.676-0.68l8.508,0.183l0.885,2.051L386.111,220.212
				z"/>
		</g>
		<g>
			<g>
				<rect x="373.726" y="194.871" fill="#6EBDFF" width="16.199" height="22.42"/>
				<path fill="#1977CC" d="M389.925,194.349h-16.199c-0.288,0-0.521,0.234-0.521,0.522v22.42c0,0.288,0.233,0.522,0.521,0.522
					h16.199c0.289,0,0.522-0.234,0.522-0.522v-22.42C390.447,194.583,390.214,194.349,389.925,194.349z M389.404,216.77h-15.156
					v-21.377h15.156V216.77z"/>
			</g>
			<g>
				<rect x="357.526" y="194.871" fill="#A2DFFF" width="16.199" height="22.42"/>
				<path fill="#1977CC" d="M373.726,194.349h-16.199c-0.288,0-0.522,0.234-0.522,0.522v22.42c0,0.288,0.234,0.522,0.522,0.522
					h16.199c0.288,0,0.522-0.234,0.522-0.522v-22.42C374.248,194.583,374.014,194.349,373.726,194.349z M373.204,216.77h-15.156
					v-21.377h15.156V216.77z"/>
			</g>
		</g>
		<g>
			<path fill="#FFFFFF" d="M397.457,215.353c-0.41-0.236-4.365,0.923-4.585,0.782c-0.668-0.428-1.365-0.87-2.196-0.697l-5.986,1.241
				c-0.553,0.115-0.907,0.657-0.791,1.211l0,0c0.116,0.554,0.657,0.91,1.21,0.795l3.799-0.788l0.958,1.747l5.922,0.787l0.318-1.751
				l0.067-1.015C396.173,217.666,398.017,215.676,397.457,215.353z"/>
			<path fill="#1977CC" d="M397.718,214.901c-0.359-0.207-0.998-0.102-3.168,0.396c-0.533,0.123-1.239,0.285-1.518,0.32
				c-0.663-0.423-1.478-0.896-2.463-0.691l-5.985,1.241c-0.404,0.084-0.751,0.32-0.977,0.665c-0.227,0.345-0.305,0.759-0.22,1.164
				c0.174,0.834,0.995,1.372,1.828,1.199l3.798-0.788c0.281-0.058,0.462-0.334,0.404-0.617c-0.059-0.282-0.336-0.463-0.617-0.405
				l-3.798,0.788c-0.271,0.056-0.537-0.12-0.594-0.392c-0.028-0.132-0.003-0.266,0.071-0.378c0.072-0.111,0.185-0.188,0.314-0.215
				l5.986-1.241c0.629-0.13,1.202,0.236,1.809,0.626c0.264,0.169,0.496,0.13,2.191-0.259c0.625-0.143,1.565-0.359,2.12-0.441
				c-0.215,0.369-0.648,0.937-1.111,1.437c-0.081,0.088-0.13,0.201-0.138,0.32l-0.065,0.985l-0.224,1.232l-5.431-0.721
				c-0.285-0.039-0.548,0.162-0.585,0.448c-0.038,0.286,0.162,0.548,0.448,0.586l5.922,0.787c0.024,0.003,0.046,0.005,0.07,0.005
				c0.248,0,0.467-0.178,0.513-0.429l0.318-1.751c0.004-0.02,0.006-0.039,0.007-0.059l0.056-0.832
				c0.718-0.793,1.49-1.814,1.393-2.453C398.041,215.202,397.913,215.014,397.718,214.901z"/>
		</g>
		<g>
			<path fill="#C5EDF9" d="M424.833,176.498l-3.338-0.024l0.547,14.725l-7.876,18.744l-21.11,4.488l-0.396,7.534l22.929-2.833
				c2.175,0.205,4.452-0.785,5.656-2.997l11.026-22.115c1.133-2.272,1.766-4.768,1.784-7.307
				C434.087,182.227,432.662,176.285,424.833,176.498z"/>
			<path fill="#1977CC" d="M424.828,175.976l-3.329-0.023c-0.002,0-0.003,0-0.005,0c-0.285,0-0.52,0.231-0.521,0.518
				c-0.003,0.288,0.229,0.523,0.517,0.526l3.34,0.024c0.007,0,0.013,0,0.018,0c2.682-0.073,4.771,0.605,6.211,2.017
				c1.146,1.123,2.505,3.366,2.473,7.674c-0.016,2.396-0.613,4.844-1.727,7.077l-11.023,22.106c-1.026,1.88-2.996,2.922-5.145,2.718
				c-0.038-0.003-0.074-0.002-0.112,0.001l-22.312,2.757l0.344-6.513l20.719-4.404c0.167-0.036,0.307-0.151,0.372-0.308
				l7.877-18.745c0.111-0.265-0.013-0.571-0.278-0.682c-0.267-0.112-0.571,0.013-0.685,0.278l-7.771,18.492l-20.843,4.431
				c-0.23,0.049-0.4,0.247-0.414,0.483l-0.395,7.534c-0.008,0.154,0.052,0.304,0.165,0.409c0.098,0.091,0.224,0.14,0.355,0.14
				c0.021,0,0.043-0.001,0.064-0.004l22.873-2.826c2.55,0.219,4.886-1.031,6.105-3.271c0.003-0.006,0.006-0.011,0.01-0.017
				l11.025-22.115c1.185-2.375,1.82-4.98,1.838-7.535c0.027-3.7-0.937-6.614-2.786-8.427
				C430.141,176.675,427.801,175.896,424.828,175.976z"/>
		</g>
	</g>
</g>
<text transform="matrix(1 0 0 1 212.2705 186.9478)"><tspan x="0" y="0" fill="#126FB5" font-family="'DINAlternate-Bold'" font-size="22.5036">UNDER </tspan><tspan x="-38.502" y="27.005" fill="#126FB5" font-family="'DINAlternate-Bold'" font-size="22.5036">CONSTRUCTION</tspan></text>
</svg>
